<mxfile host="app.diagrams.net" agent="Mozilla/5.0 (Windows NT 10.0; Win64; x64) AppleWebKit/537.36 (KHTML, like Gecko) Chrome/127.0.0.0 Safari/537.36" version="24.7.7">
  <diagram name="Page-1" id="347TT58dcH0MzLungGjl">
    <mxGraphModel dx="1434" dy="738" grid="1" gridSize="10" guides="1" tooltips="1" connect="1" arrows="1" fold="1" page="1" pageScale="1" pageWidth="1100" pageHeight="850" math="0" shadow="0">
      <root>
        <mxCell id="0" />
        <mxCell id="1" parent="0" />
        <mxCell id="USX80gVfWroeQub0HQB3-89" value="" style="rounded=1;whiteSpace=wrap;html=1;fillColor=#f5f5f5;strokeColor=#666666;fontColor=#333333;" vertex="1" parent="1">
          <mxGeometry x="161" y="40" width="560" height="530" as="geometry" />
        </mxCell>
        <mxCell id="USX80gVfWroeQub0HQB3-13" value="" style="edgeStyle=orthogonalEdgeStyle;rounded=0;orthogonalLoop=1;jettySize=auto;html=1;" edge="1" parent="1" source="USX80gVfWroeQub0HQB3-1" target="USX80gVfWroeQub0HQB3-6">
          <mxGeometry relative="1" as="geometry" />
        </mxCell>
        <mxCell id="USX80gVfWroeQub0HQB3-1" value="Data Collection" style="rounded=1;whiteSpace=wrap;html=1;fontStyle=1;fillColor=#ffe6cc;strokeColor=#d79b00;" vertex="1" parent="1">
          <mxGeometry x="200" y="70" width="120" height="40" as="geometry" />
        </mxCell>
        <mxCell id="USX80gVfWroeQub0HQB3-15" value="" style="edgeStyle=orthogonalEdgeStyle;rounded=0;orthogonalLoop=1;jettySize=auto;html=1;" edge="1" parent="1" source="USX80gVfWroeQub0HQB3-2" target="USX80gVfWroeQub0HQB3-3">
          <mxGeometry relative="1" as="geometry" />
        </mxCell>
        <mxCell id="USX80gVfWroeQub0HQB3-2" value="Data Cleaning" style="rounded=1;whiteSpace=wrap;html=1;fontStyle=1;fillColor=#ffe6cc;strokeColor=#d79b00;" vertex="1" parent="1">
          <mxGeometry x="200" y="230" width="120" height="40" as="geometry" />
        </mxCell>
        <mxCell id="USX80gVfWroeQub0HQB3-26" value="" style="edgeStyle=orthogonalEdgeStyle;rounded=0;orthogonalLoop=1;jettySize=auto;html=1;" edge="1" parent="1" source="USX80gVfWroeQub0HQB3-3" target="USX80gVfWroeQub0HQB3-5">
          <mxGeometry relative="1" as="geometry" />
        </mxCell>
        <mxCell id="USX80gVfWroeQub0HQB3-3" value="Data Analysis&lt;br&gt;and Visualization" style="rounded=1;whiteSpace=wrap;html=1;fontStyle=1;fillColor=#ffe6cc;strokeColor=#d79b00;" vertex="1" parent="1">
          <mxGeometry x="200" y="310" width="120" height="40" as="geometry" />
        </mxCell>
        <mxCell id="USX80gVfWroeQub0HQB3-28" value="" style="edgeStyle=orthogonalEdgeStyle;rounded=0;orthogonalLoop=1;jettySize=auto;html=1;" edge="1" parent="1" source="USX80gVfWroeQub0HQB3-5" target="USX80gVfWroeQub0HQB3-8">
          <mxGeometry relative="1" as="geometry" />
        </mxCell>
        <mxCell id="USX80gVfWroeQub0HQB3-5" value="Data Preprocessing" style="rounded=1;whiteSpace=wrap;html=1;fontStyle=1;fillColor=#ffe6cc;strokeColor=#d79b00;" vertex="1" parent="1">
          <mxGeometry x="200" y="390" width="120" height="40" as="geometry" />
        </mxCell>
        <mxCell id="USX80gVfWroeQub0HQB3-14" value="" style="edgeStyle=orthogonalEdgeStyle;rounded=0;orthogonalLoop=1;jettySize=auto;html=1;" edge="1" parent="1" source="USX80gVfWroeQub0HQB3-6" target="USX80gVfWroeQub0HQB3-2">
          <mxGeometry relative="1" as="geometry" />
        </mxCell>
        <mxCell id="USX80gVfWroeQub0HQB3-6" value="Data Annotation" style="rounded=1;whiteSpace=wrap;html=1;fontStyle=1;fillColor=#ffe6cc;strokeColor=#d79b00;" vertex="1" parent="1">
          <mxGeometry x="200" y="150" width="120" height="40" as="geometry" />
        </mxCell>
        <mxCell id="USX80gVfWroeQub0HQB3-40" value="" style="edgeStyle=orthogonalEdgeStyle;rounded=0;orthogonalLoop=1;jettySize=auto;html=1;" edge="1" parent="1" source="USX80gVfWroeQub0HQB3-7" target="USX80gVfWroeQub0HQB3-39">
          <mxGeometry relative="1" as="geometry" />
        </mxCell>
        <mxCell id="USX80gVfWroeQub0HQB3-7" value="Model Selection" style="rounded=1;whiteSpace=wrap;html=1;fontStyle=1;fillColor=#ffe6cc;strokeColor=#d79b00;" vertex="1" parent="1">
          <mxGeometry x="360" y="150" width="120" height="40" as="geometry" />
        </mxCell>
        <mxCell id="USX80gVfWroeQub0HQB3-29" value="" style="edgeStyle=orthogonalEdgeStyle;rounded=0;orthogonalLoop=1;jettySize=auto;html=1;" edge="1" parent="1" source="USX80gVfWroeQub0HQB3-8" target="USX80gVfWroeQub0HQB3-10">
          <mxGeometry relative="1" as="geometry" />
        </mxCell>
        <mxCell id="USX80gVfWroeQub0HQB3-32" value="" style="edgeStyle=orthogonalEdgeStyle;rounded=0;orthogonalLoop=1;jettySize=auto;html=1;" edge="1" parent="1" source="USX80gVfWroeQub0HQB3-8" target="USX80gVfWroeQub0HQB3-12">
          <mxGeometry relative="1" as="geometry" />
        </mxCell>
        <mxCell id="USX80gVfWroeQub0HQB3-8" value="Split Dataset" style="rounded=1;whiteSpace=wrap;html=1;fontStyle=1;fillColor=#ffe6cc;strokeColor=#d79b00;" vertex="1" parent="1">
          <mxGeometry x="360" y="390" width="120" height="40" as="geometry" />
        </mxCell>
        <mxCell id="USX80gVfWroeQub0HQB3-24" value="&lt;font style=&quot;font-size: 10px;&quot;&gt;Transforms&lt;/font&gt;" style="text;html=1;align=center;verticalAlign=middle;whiteSpace=wrap;rounded=0;" vertex="1" parent="1">
          <mxGeometry x="190" y="448" width="60" height="20" as="geometry" />
        </mxCell>
        <mxCell id="USX80gVfWroeQub0HQB3-33" value="" style="group" vertex="1" connectable="0" parent="1">
          <mxGeometry x="389.5" y="247" width="61" height="72.5" as="geometry" />
        </mxCell>
        <mxCell id="USX80gVfWroeQub0HQB3-10" value="Train&lt;br&gt;Set" style="shape=cylinder3;whiteSpace=wrap;html=1;boundedLbl=1;backgroundOutline=1;size=15;fillColor=#f9f7ed;strokeColor=#36393d;" vertex="1" parent="USX80gVfWroeQub0HQB3-33">
          <mxGeometry width="60" height="72.5" as="geometry" />
        </mxCell>
        <mxCell id="USX80gVfWroeQub0HQB3-30" value="80%" style="text;html=1;align=center;verticalAlign=middle;whiteSpace=wrap;rounded=0;" vertex="1" parent="USX80gVfWroeQub0HQB3-33">
          <mxGeometry x="1" y="6.5" width="60" height="20" as="geometry" />
        </mxCell>
        <mxCell id="USX80gVfWroeQub0HQB3-36" value="" style="group" vertex="1" connectable="0" parent="1">
          <mxGeometry x="589.75" y="373.75" width="61" height="72.5" as="geometry" />
        </mxCell>
        <mxCell id="USX80gVfWroeQub0HQB3-12" value="Test&lt;br&gt;Set" style="shape=cylinder3;whiteSpace=wrap;html=1;boundedLbl=1;backgroundOutline=1;size=15;fillColor=#f9f7ed;strokeColor=#36393d;" vertex="1" parent="USX80gVfWroeQub0HQB3-36">
          <mxGeometry width="60" height="72.5" as="geometry" />
        </mxCell>
        <mxCell id="USX80gVfWroeQub0HQB3-34" value="10%" style="text;html=1;align=center;verticalAlign=middle;whiteSpace=wrap;rounded=0;" vertex="1" parent="USX80gVfWroeQub0HQB3-36">
          <mxGeometry x="1" y="6" width="60" height="20" as="geometry" />
        </mxCell>
        <mxCell id="USX80gVfWroeQub0HQB3-38" value="" style="edgeStyle=orthogonalEdgeStyle;rounded=0;orthogonalLoop=1;jettySize=auto;html=1;" edge="1" parent="1" source="USX80gVfWroeQub0HQB3-10" target="USX80gVfWroeQub0HQB3-7">
          <mxGeometry relative="1" as="geometry" />
        </mxCell>
        <mxCell id="USX80gVfWroeQub0HQB3-39" value="Model Training" style="rounded=1;whiteSpace=wrap;html=1;fontStyle=1;fillColor=#ffe6cc;strokeColor=#d79b00;" vertex="1" parent="1">
          <mxGeometry x="360" y="70" width="120" height="40" as="geometry" />
        </mxCell>
        <mxCell id="USX80gVfWroeQub0HQB3-73" value="" style="edgeStyle=orthogonalEdgeStyle;rounded=0;orthogonalLoop=1;jettySize=auto;html=1;" edge="1" parent="1" source="USX80gVfWroeQub0HQB3-41" target="USX80gVfWroeQub0HQB3-50">
          <mxGeometry relative="1" as="geometry" />
        </mxCell>
        <mxCell id="USX80gVfWroeQub0HQB3-41" value="Model&lt;br&gt;Performance&lt;br&gt;Evaluation" style="rounded=1;whiteSpace=wrap;html=1;fontStyle=1;fillColor=#ffe6cc;strokeColor=#d79b00;" vertex="1" parent="1">
          <mxGeometry x="559.5" y="70" width="120" height="60" as="geometry" />
        </mxCell>
        <mxCell id="USX80gVfWroeQub0HQB3-44" value="" style="group" vertex="1" connectable="0" parent="1">
          <mxGeometry x="480" y="247" width="61" height="73" as="geometry" />
        </mxCell>
        <mxCell id="USX80gVfWroeQub0HQB3-11" value="Validation&lt;br&gt;Set" style="shape=cylinder3;whiteSpace=wrap;html=1;boundedLbl=1;backgroundOutline=1;size=15;fillColor=#f9f7ed;strokeColor=#36393d;" vertex="1" parent="USX80gVfWroeQub0HQB3-44">
          <mxGeometry width="60" height="73" as="geometry" />
        </mxCell>
        <mxCell id="USX80gVfWroeQub0HQB3-35" value="10%" style="text;html=1;align=center;verticalAlign=middle;whiteSpace=wrap;rounded=0;" vertex="1" parent="USX80gVfWroeQub0HQB3-44">
          <mxGeometry x="1" y="5.059860265945466" width="60" height="22.77034032003606" as="geometry" />
        </mxCell>
        <mxCell id="USX80gVfWroeQub0HQB3-45" style="edgeStyle=orthogonalEdgeStyle;rounded=0;orthogonalLoop=1;jettySize=auto;html=1;exitX=0.75;exitY=0;exitDx=0;exitDy=0;entryX=0.5;entryY=1;entryDx=0;entryDy=0;entryPerimeter=0;" edge="1" parent="1" source="USX80gVfWroeQub0HQB3-8" target="USX80gVfWroeQub0HQB3-11">
          <mxGeometry relative="1" as="geometry" />
        </mxCell>
        <mxCell id="USX80gVfWroeQub0HQB3-74" value="" style="edgeStyle=orthogonalEdgeStyle;rounded=0;orthogonalLoop=1;jettySize=auto;html=1;" edge="1" parent="1" source="USX80gVfWroeQub0HQB3-50" target="USX80gVfWroeQub0HQB3-65">
          <mxGeometry relative="1" as="geometry" />
        </mxCell>
        <mxCell id="USX80gVfWroeQub0HQB3-50" value="Model Optimization" style="rounded=1;whiteSpace=wrap;html=1;fontStyle=1;fillColor=#ffe6cc;strokeColor=#d79b00;" vertex="1" parent="1">
          <mxGeometry x="560.5" y="170" width="119.5" height="40" as="geometry" />
        </mxCell>
        <mxCell id="USX80gVfWroeQub0HQB3-53" value="" style="edgeStyle=orthogonalEdgeStyle;rounded=0;orthogonalLoop=1;jettySize=auto;html=1;" edge="1" parent="1" source="USX80gVfWroeQub0HQB3-52" target="USX80gVfWroeQub0HQB3-5">
          <mxGeometry relative="1" as="geometry" />
        </mxCell>
        <mxCell id="USX80gVfWroeQub0HQB3-52" value="Resize&lt;br&gt;To Tensor&lt;br&gt;Normalize Pixel" style="shape=parallelogram;perimeter=parallelogramPerimeter;whiteSpace=wrap;html=1;fixedSize=1;fillColor=#f9f7ed;strokeColor=#36393d;" vertex="1" parent="1">
          <mxGeometry x="195" y="480" width="130" height="60" as="geometry" />
        </mxCell>
        <mxCell id="USX80gVfWroeQub0HQB3-55" value="Hyperparameters" style="swimlane;whiteSpace=wrap;html=1;fontStyle=0;fillColor=#f9f7ed;strokeColor=#36393d;" vertex="1" parent="1">
          <mxGeometry x="760" y="55" width="180" height="107" as="geometry">
            <mxRectangle x="570" y="230" width="130" height="30" as="alternateBounds" />
          </mxGeometry>
        </mxCell>
        <mxCell id="USX80gVfWroeQub0HQB3-87" value="&lt;font style=&quot;color: rgb(51, 51, 51); font-size: 10px;&quot;&gt;Epoch: 10 ~ 20&lt;/font&gt;&lt;div&gt;&lt;font style=&quot;color: rgb(51, 51, 51); font-size: 10px;&quot;&gt;Batch size: 32&lt;br&gt;Learning Rate: 0.001&lt;/font&gt;&lt;div style=&quot;color: rgb(51, 51, 51);&quot;&gt;&lt;font style=&quot;font-size: 10px;&quot;&gt;Loss Function: CrossEntropyLoss()&lt;br&gt;Optimizer: Adam&lt;/font&gt;&lt;/div&gt;&lt;/div&gt;" style="text;html=1;align=center;verticalAlign=middle;resizable=0;points=[];autosize=1;strokeColor=none;fillColor=none;" vertex="1" parent="USX80gVfWroeQub0HQB3-55">
          <mxGeometry x="-1" y="17" width="180" height="90" as="geometry" />
        </mxCell>
        <mxCell id="USX80gVfWroeQub0HQB3-65" value="Final Evaluation" style="rounded=1;whiteSpace=wrap;html=1;fontStyle=1;fillColor=#ffe6cc;strokeColor=#d79b00;" vertex="1" parent="1">
          <mxGeometry x="560.5" y="269" width="119.5" height="40" as="geometry" />
        </mxCell>
        <mxCell id="USX80gVfWroeQub0HQB3-67" value="" style="edgeStyle=orthogonalEdgeStyle;rounded=0;orthogonalLoop=1;jettySize=auto;html=1;" edge="1" parent="1" source="USX80gVfWroeQub0HQB3-12" target="USX80gVfWroeQub0HQB3-65">
          <mxGeometry relative="1" as="geometry" />
        </mxCell>
        <mxCell id="USX80gVfWroeQub0HQB3-71" style="edgeStyle=orthogonalEdgeStyle;rounded=0;orthogonalLoop=1;jettySize=auto;html=1;entryX=-0.014;entryY=0.348;entryDx=0;entryDy=0;entryPerimeter=0;exitX=1;exitY=0.5;exitDx=0;exitDy=0;" edge="1" parent="1" source="USX80gVfWroeQub0HQB3-39">
          <mxGeometry relative="1" as="geometry">
            <mxPoint x="481.68" y="89.55483091787441" as="sourcePoint" />
            <mxPoint x="559.5" y="90.42999999999999" as="targetPoint" />
          </mxGeometry>
        </mxCell>
        <mxCell id="USX80gVfWroeQub0HQB3-72" style="edgeStyle=orthogonalEdgeStyle;rounded=0;orthogonalLoop=1;jettySize=auto;html=1;entryX=0.004;entryY=0.667;entryDx=0;entryDy=0;entryPerimeter=0;exitX=0.5;exitY=0;exitDx=0;exitDy=0;exitPerimeter=0;" edge="1" parent="1" source="USX80gVfWroeQub0HQB3-11" target="USX80gVfWroeQub0HQB3-41">
          <mxGeometry relative="1" as="geometry" />
        </mxCell>
        <mxCell id="USX80gVfWroeQub0HQB3-92" value="" style="group" vertex="1" connectable="0" parent="1">
          <mxGeometry x="760" y="180" width="179" height="376" as="geometry" />
        </mxCell>
        <mxCell id="USX80gVfWroeQub0HQB3-85" value="" style="rounded=1;whiteSpace=wrap;html=1;fillColor=#d5e8d4;strokeColor=#82b366;" vertex="1" parent="USX80gVfWroeQub0HQB3-92">
          <mxGeometry width="179" height="340" as="geometry" />
        </mxCell>
        <mxCell id="USX80gVfWroeQub0HQB3-82" style="edgeStyle=orthogonalEdgeStyle;rounded=0;orthogonalLoop=1;jettySize=auto;html=1;entryX=0.5;entryY=0;entryDx=0;entryDy=0;" edge="1" parent="USX80gVfWroeQub0HQB3-92" source="USX80gVfWroeQub0HQB3-77" target="USX80gVfWroeQub0HQB3-80">
          <mxGeometry relative="1" as="geometry" />
        </mxCell>
        <mxCell id="USX80gVfWroeQub0HQB3-77" value="Image" style="shape=cube;whiteSpace=wrap;html=1;boundedLbl=1;backgroundOutline=1;darkOpacity=0.05;darkOpacity2=0.1;fillColor=#ffcccc;strokeColor=#36393d;" vertex="1" parent="USX80gVfWroeQub0HQB3-92">
          <mxGeometry x="36.75" y="16.5" width="105" height="83" as="geometry" />
        </mxCell>
        <mxCell id="USX80gVfWroeQub0HQB3-84" value="" style="edgeStyle=orthogonalEdgeStyle;rounded=0;orthogonalLoop=1;jettySize=auto;html=1;" edge="1" parent="USX80gVfWroeQub0HQB3-92" source="USX80gVfWroeQub0HQB3-80" target="USX80gVfWroeQub0HQB3-83">
          <mxGeometry relative="1" as="geometry" />
        </mxCell>
        <mxCell id="USX80gVfWroeQub0HQB3-80" value="Highest&lt;br&gt;Performing Model" style="rounded=0;whiteSpace=wrap;html=1;fontStyle=1;fillColor=#f9f7ed;strokeColor=#36393d;" vertex="1" parent="USX80gVfWroeQub0HQB3-92">
          <mxGeometry x="29.25" y="154.5" width="120" height="60" as="geometry" />
        </mxCell>
        <mxCell id="USX80gVfWroeQub0HQB3-83" value="&lt;div&gt;Classification&lt;br&gt;Output&lt;/div&gt;" style="shape=parallelogram;perimeter=parallelogramPerimeter;whiteSpace=wrap;html=1;fixedSize=1;fillColor=#f8cecc;strokeColor=#b85450;" vertex="1" parent="USX80gVfWroeQub0HQB3-92">
          <mxGeometry x="29.379999999999995" y="262.75" width="120.25" height="54.5" as="geometry" />
        </mxCell>
        <mxCell id="USX80gVfWroeQub0HQB3-86" value="&lt;font style=&quot;font-size: 12px;&quot;&gt;Model Workflow&lt;/font&gt;" style="text;html=1;align=center;verticalAlign=middle;whiteSpace=wrap;rounded=0;fontStyle=1" vertex="1" parent="USX80gVfWroeQub0HQB3-92">
          <mxGeometry x="40" y="346" width="114.25" height="30" as="geometry" />
        </mxCell>
        <mxCell id="USX80gVfWroeQub0HQB3-123" value="&lt;b&gt;&lt;font style=&quot;font-size: 10px;&quot;&gt;12&lt;/font&gt;&lt;/b&gt;" style="text;html=1;align=center;verticalAlign=middle;whiteSpace=wrap;rounded=0;" vertex="1" parent="USX80gVfWroeQub0HQB3-92">
          <mxGeometry x="144.75" y="139.5" width="20" height="15" as="geometry" />
        </mxCell>
        <mxCell id="USX80gVfWroeQub0HQB3-94" style="edgeStyle=orthogonalEdgeStyle;rounded=0;orthogonalLoop=1;jettySize=auto;html=1;entryX=1;entryY=0.5;entryDx=0;entryDy=0;" edge="1" parent="1" source="USX80gVfWroeQub0HQB3-87" target="USX80gVfWroeQub0HQB3-50">
          <mxGeometry relative="1" as="geometry">
            <Array as="points">
              <mxPoint x="710" y="112" />
              <mxPoint x="710" y="190" />
            </Array>
          </mxGeometry>
        </mxCell>
        <mxCell id="USX80gVfWroeQub0HQB3-111" value="&lt;font style=&quot;font-size: 12px;&quot;&gt;Model Training Workflow&lt;/font&gt;" style="text;html=1;align=center;verticalAlign=middle;whiteSpace=wrap;rounded=0;fontStyle=1" vertex="1" parent="1">
          <mxGeometry x="363.87" y="571" width="154.25" height="30" as="geometry" />
        </mxCell>
        <mxCell id="USX80gVfWroeQub0HQB3-112" value="&lt;b&gt;&lt;font style=&quot;font-size: 10px;&quot;&gt;1&lt;/font&gt;&lt;/b&gt;" style="text;html=1;align=center;verticalAlign=middle;whiteSpace=wrap;rounded=0;" vertex="1" parent="1">
          <mxGeometry x="313" y="57" width="20" height="15" as="geometry" />
        </mxCell>
        <mxCell id="USX80gVfWroeQub0HQB3-113" value="&lt;b&gt;&lt;font style=&quot;font-size: 10px;&quot;&gt;2&lt;/font&gt;&lt;/b&gt;" style="text;html=1;align=center;verticalAlign=middle;whiteSpace=wrap;rounded=0;" vertex="1" parent="1">
          <mxGeometry x="313" y="137" width="20" height="15" as="geometry" />
        </mxCell>
        <mxCell id="USX80gVfWroeQub0HQB3-114" value="&lt;b&gt;&lt;font style=&quot;font-size: 10px;&quot;&gt;3&lt;/font&gt;&lt;/b&gt;" style="text;html=1;align=center;verticalAlign=middle;whiteSpace=wrap;rounded=0;" vertex="1" parent="1">
          <mxGeometry x="314" y="218" width="20" height="15" as="geometry" />
        </mxCell>
        <mxCell id="USX80gVfWroeQub0HQB3-115" value="&lt;b&gt;&lt;font style=&quot;font-size: 10px;&quot;&gt;4&lt;/font&gt;&lt;/b&gt;" style="text;html=1;align=center;verticalAlign=middle;whiteSpace=wrap;rounded=0;" vertex="1" parent="1">
          <mxGeometry x="315" y="297.5" width="20" height="15" as="geometry" />
        </mxCell>
        <mxCell id="USX80gVfWroeQub0HQB3-116" value="&lt;b&gt;&lt;font style=&quot;font-size: 10px;&quot;&gt;5&lt;/font&gt;&lt;/b&gt;" style="text;html=1;align=center;verticalAlign=middle;whiteSpace=wrap;rounded=0;" vertex="1" parent="1">
          <mxGeometry x="314" y="376" width="20" height="15" as="geometry" />
        </mxCell>
        <mxCell id="USX80gVfWroeQub0HQB3-117" value="&lt;b&gt;&lt;font style=&quot;font-size: 10px;&quot;&gt;6&lt;/font&gt;&lt;/b&gt;" style="text;html=1;align=center;verticalAlign=middle;whiteSpace=wrap;rounded=0;" vertex="1" parent="1">
          <mxGeometry x="473" y="377" width="20" height="15" as="geometry" />
        </mxCell>
        <mxCell id="USX80gVfWroeQub0HQB3-118" value="&lt;b&gt;&lt;font style=&quot;font-size: 10px;&quot;&gt;7&lt;/font&gt;&lt;/b&gt;" style="text;html=1;align=center;verticalAlign=middle;whiteSpace=wrap;rounded=0;" vertex="1" parent="1">
          <mxGeometry x="473" y="137" width="20" height="15" as="geometry" />
        </mxCell>
        <mxCell id="USX80gVfWroeQub0HQB3-119" value="&lt;b&gt;&lt;font style=&quot;font-size: 10px;&quot;&gt;8&lt;/font&gt;&lt;/b&gt;" style="text;html=1;align=center;verticalAlign=middle;whiteSpace=wrap;rounded=0;" vertex="1" parent="1">
          <mxGeometry x="473" y="57" width="20" height="15" as="geometry" />
        </mxCell>
        <mxCell id="USX80gVfWroeQub0HQB3-120" value="&lt;b&gt;&lt;font style=&quot;font-size: 10px;&quot;&gt;9&lt;/font&gt;&lt;/b&gt;" style="text;html=1;align=center;verticalAlign=middle;whiteSpace=wrap;rounded=0;" vertex="1" parent="1">
          <mxGeometry x="670" y="57" width="20" height="15" as="geometry" />
        </mxCell>
        <mxCell id="USX80gVfWroeQub0HQB3-121" value="&lt;b&gt;&lt;font style=&quot;font-size: 10px;&quot;&gt;10&lt;/font&gt;&lt;/b&gt;" style="text;html=1;align=center;verticalAlign=middle;whiteSpace=wrap;rounded=0;" vertex="1" parent="1">
          <mxGeometry x="673" y="156" width="20" height="15" as="geometry" />
        </mxCell>
        <mxCell id="USX80gVfWroeQub0HQB3-122" value="&lt;b&gt;&lt;font style=&quot;font-size: 10px;&quot;&gt;11&lt;/font&gt;&lt;/b&gt;" style="text;html=1;align=center;verticalAlign=middle;whiteSpace=wrap;rounded=0;" vertex="1" parent="1">
          <mxGeometry x="673" y="255" width="20" height="15" as="geometry" />
        </mxCell>
        <mxCell id="USX80gVfWroeQub0HQB3-128" value="" style="edgeStyle=orthogonalEdgeStyle;rounded=0;orthogonalLoop=1;jettySize=auto;html=1;" edge="1" parent="1" source="USX80gVfWroeQub0HQB3-125" target="USX80gVfWroeQub0HQB3-126">
          <mxGeometry relative="1" as="geometry" />
        </mxCell>
        <mxCell id="USX80gVfWroeQub0HQB3-125" value="Conv+Maxpool&lt;div&gt;Layer&lt;/div&gt;" style="whiteSpace=wrap;html=1;aspect=fixed;fillColor=#fff2cc;strokeColor=#d6b656;" vertex="1" parent="1">
          <mxGeometry x="304.34000000000003" y="1045" width="120" height="120" as="geometry" />
        </mxCell>
        <mxCell id="USX80gVfWroeQub0HQB3-129" value="" style="edgeStyle=orthogonalEdgeStyle;rounded=0;orthogonalLoop=1;jettySize=auto;html=1;" edge="1" parent="1" source="USX80gVfWroeQub0HQB3-126" target="USX80gVfWroeQub0HQB3-127">
          <mxGeometry relative="1" as="geometry" />
        </mxCell>
        <mxCell id="USX80gVfWroeQub0HQB3-126" value="Conv+Maxpool&lt;div&gt;Layer&lt;/div&gt;" style="whiteSpace=wrap;html=1;aspect=fixed;fillColor=#fff2cc;strokeColor=#d6b656;" vertex="1" parent="1">
          <mxGeometry x="453.84000000000003" y="1055" width="100" height="100" as="geometry" />
        </mxCell>
        <mxCell id="USX80gVfWroeQub0HQB3-132" value="" style="edgeStyle=orthogonalEdgeStyle;rounded=0;orthogonalLoop=1;jettySize=auto;html=1;" edge="1" parent="1" source="USX80gVfWroeQub0HQB3-127" target="USX80gVfWroeQub0HQB3-131">
          <mxGeometry relative="1" as="geometry" />
        </mxCell>
        <mxCell id="USX80gVfWroeQub0HQB3-127" value="Conv+Maxpool&lt;div&gt;Layer&lt;/div&gt;" style="whiteSpace=wrap;html=1;aspect=fixed;fillColor=#fff2cc;strokeColor=#d6b656;" vertex="1" parent="1">
          <mxGeometry x="584.34" y="1060" width="88.12" height="88.12" as="geometry" />
        </mxCell>
        <mxCell id="USX80gVfWroeQub0HQB3-134" value="" style="edgeStyle=orthogonalEdgeStyle;rounded=0;orthogonalLoop=1;jettySize=auto;html=1;" edge="1" parent="1" source="USX80gVfWroeQub0HQB3-131" target="USX80gVfWroeQub0HQB3-133">
          <mxGeometry relative="1" as="geometry" />
        </mxCell>
        <mxCell id="USX80gVfWroeQub0HQB3-131" value="Fully Connected Layer" style="rounded=0;whiteSpace=wrap;html=1;fillColor=#d5e8d4;strokeColor=#82b366;" vertex="1" parent="1">
          <mxGeometry x="707.34" y="1005" width="80" height="200" as="geometry" />
        </mxCell>
        <mxCell id="USX80gVfWroeQub0HQB3-145" value="" style="edgeStyle=orthogonalEdgeStyle;rounded=0;orthogonalLoop=1;jettySize=auto;html=1;" edge="1" parent="1" source="USX80gVfWroeQub0HQB3-133" target="USX80gVfWroeQub0HQB3-144">
          <mxGeometry relative="1" as="geometry" />
        </mxCell>
        <mxCell id="USX80gVfWroeQub0HQB3-133" value="Fully Connected Layer" style="rounded=0;whiteSpace=wrap;html=1;fillColor=#d5e8d4;strokeColor=#82b366;" vertex="1" parent="1">
          <mxGeometry x="815.34" y="1005" width="80" height="200" as="geometry" />
        </mxCell>
        <mxCell id="USX80gVfWroeQub0HQB3-144" value="Output" style="shape=parallelogram;perimeter=parallelogramPerimeter;whiteSpace=wrap;html=1;fixedSize=1;fillColor=#f8cecc;strokeColor=#b85450;" vertex="1" parent="1">
          <mxGeometry x="924.34" y="1080" width="100" height="50" as="geometry" />
        </mxCell>
        <mxCell id="USX80gVfWroeQub0HQB3-149" style="edgeStyle=orthogonalEdgeStyle;rounded=0;orthogonalLoop=1;jettySize=auto;html=1;entryX=0;entryY=0.25;entryDx=0;entryDy=0;" edge="1" parent="1" source="USX80gVfWroeQub0HQB3-146" target="USX80gVfWroeQub0HQB3-125">
          <mxGeometry relative="1" as="geometry" />
        </mxCell>
        <mxCell id="USX80gVfWroeQub0HQB3-146" value="" style="shape=image;verticalLabelPosition=bottom;labelBackgroundColor=default;verticalAlign=top;aspect=fixed;imageAspect=0;image=data:image/jpeg,/9j/4AAQSkZJRgABAQAAAQABAAD/2wBDAAgGBgcGBQgHBwcJCQgKDBQNDAsLDBkSEw8UHRofHh0aHBwgJC4nICIsIxwcKDcpLDAxNDQ0Hyc5PTgyPC4zNDL/2wBDAQkJCQwLDBgNDRgyIRwhMjIyMjIyMjIyMjIyMjIyMjIyMjIyMjIyMjIyMjIyMjIyMjIyMjIyMjIyMjIyMjIyMjL/wAARCAGAAgADASIAAhEBAxEB/8QAHwAAAQUBAQEBAQEAAAAAAAAAAAECAwQFBgcICQoL/8QAtRAAAgEDAwIEAwUFBAQAAAF9AQIDAAQRBRIhMUEGE1FhByJxFDKBkaEII0KxwRVS0fAkM2JyggkKFhcYGRolJicoKSo0NTY3ODk6Q0RFRkdISUpTVFVWV1hZWmNkZWZnaGlqc3R1dnd4eXqDhIWGh4iJipKTlJWWl5iZmqKjpKWmp6ipqrKztLW2t7i5usLDxMXGx8jJytLT1NXW19jZ2uHi4+Tl5ufo6erx8vP09fb3+Pn6/8QAHwEAAwEBAQEBAQEBAQAAAAAAAAECAwQFBgcICQoL/8QAtREAAgECBAQDBAcFBAQAAQJ3AAECAxEEBSExBhJBUQdhcRMiMoEIFEKRobHBCSMzUvAVYnLRChYkNOEl8RcYGRomJygpKjU2Nzg5OkNERUZHSElKU1RVVldYWVpjZGVmZ2hpanN0dXZ3eHl6goOEhYaHiImKkpOUlZaXmJmaoqOkpaanqKmqsrO0tba3uLm6wsPExcbHyMnK0tPU1dbX2Nna4uPk5ebn6Onq8vP09fb3+Pn6/9oADAMBAAIRAxEAPwD26mGlzSGtiRKKWk70AFFKaSgAooooASilpO9AC0UUUAFGKKKAExQaKKACg0UlACZpDSmm0xCGmmlNNJoAKQ0GkoAKKKSgApM0maCaAHZpc1ETS7qAJM0dqZupc0gFpKTNGaBCUhpSabmgYhppxSk000ABph65pTTT1oASmnrSk00mgBCaQmgmkNACZpDRSE0AIaTNGaQmgApKKTNACGkoPNJQMKTNFITQAE0maTNGaAENJQaDQAZzSUZppoAQ0nag000AGaCabmjOKQzu+9FFLTEFFFFACUlLRQMSig0UCEpaKKACiig0wCiiigBKKWkoAKaaXNIaBCGmmlJpDTAQ0w06mmgAzSGkoNABmm5pM0hNAATTSaCaYTQIcWo3VGTSFqQEu6l3VBvo30WGT7qXdVcPTg1AibOaTNMDUZzQApNNJpM00mgYuaYTzSFqYTSAcTTSaQmkzQMKaTRmkJoAXtTaM0hNAgJpKTNJmgBSaaTQaTNAwNNPXOaWmluQPWgQtNJoNITQAZpp+tLSZoAM0hozSZoAKTNBNNoGBpppSeaaaAAmmmg03NAHoGKM4oooAKKKKBhSUUlAAaKKKYgooFFABRRS0AJRRRQIKSig0AJSUpppoAQ02lNIaYCGmmnGmmgBppCaU000AIaYTSmo2NAgJqNmpGao2egBxamFqrXF5BaxmSeaOJB/E7ACuav/AIg6BZkqLozsO0K5/XpQ2luKUox3Z1hejfXm83xWtdxFvp0zjsXcCkg+KMbsPO08qnqsnP8AKo50R7aHc9K30oesXSddstZtvOtJQ2PvIfvL9RWiH5qjS99i6HzTt1VlepA1AEhNNJpM0hNAwJppoJpKQCUhoNITQAZptLTc0ALmmmikJoAKQ0UhNABSE4opDQAZpCaQmkNABSUUhNAB2ppNFJTAXNNozSUDDNJQaQmkAhNNzSnrTSaAAmmmgmk70AehUUUUAFJS0lAwoNBooASilopiCiiloASilNNoEFFFFIBKKKQ0ABpppTSGmA00hFKaaaAA000tIaAGmmmnU00xDG6VA5pmo6ha6ZaPdXk6wwoOWY15B4n+J11fNJbaOGt7fkGb+Nvp6VLkkZzqRgtT0LW/FWlaGpF3cqZe0KfMx/Dt+Nefav8AEm+uiY7BUtIzxuPzv/gK89lmeWRpJHZ3PzFmOc0gPX25/CsnUbOOeInLbRF2+1C5v5TJc3M0zesjE1TJxTj69c/5/wA/WmHmoMLdWGeevt/hUitmofY/Snq3c/59aBo2vDmrvoutQXQJ8vO2UDup6/417fHMrqrKQVIyCO4r55zXrXgXVzqGhrBI2ZrU+Wc91/hP9PwrSm+h14ef2TtI3qwrVRjarSNWp1k+aDTQaU0AJTTTjTTQAhpKWkpDENNNONNoASkNKeKaTQAGkNFJmgApDRSZoAQ0hpTTTQAUlBNGaAENITS000xhTTS0lIBCaaTS000AITSUtJQAhppp1NoA9DpKWigApDQaKACgUUUAFFFLQAUUUlAAaDS0hoEJRQaSgBDR2oNJnigApppR0pDQAhNNNLSGmISmmnU00AJVLU9Rt9K0+a9uW2xRLk+p9AKumvN/jBeSQaFZQISBNMd2PYf/AF6TdlcmcuWLZ5v4s8VXviXUGedytupxFCp+VfT61zxbOD2HIH86YTmlB79uv4HrXOzzW3J3Yv3ffacfgaBx17cH6UdMA/7p/pQBnGe/ymgTJFPBHcUppEBGDwMcEmpChKZRWkHTIHA/Gmk3sSQ4H50vI5wfX/Gn+TNu5dE/3RuNIRHEDuaSQnrlsA/gKrkstWPTuRfaI1/irrvAGoLDrgRJlKTpsZfQ9v1/nXGPHE7Z2YGema2dGeWG8ie38uNgwII4NJNX0NabSkmj3WJqtxmsqzkd7aJ3GHZQSB61oRNzW56BeWlqNGqTNAxDTaeelNNADTTaU0hpAFNNGaSgYnekNBpKAEpDS0hoAQ0ZpKKAENJS0lACUlLSUAJSGlpDTASmmnUhFIY002nGmmgBrE5GBkZ59qKDSE0AJSUtJQB6HRRSUAFFLSUAFFFLQAlLRRQAUlHWigQUhpaDQAlJS0lACGmj3p1JQAmMZpKWkNADTTacaQ0wG0hpSaaTQIQ1yfxF0j+1/CF0FXM1t+/T8Ov6ZrqyajlVXRkcZVhgg9xQ1dCkrqx8okc4oB/L+netbxHpT6P4hvLAqcRykJ7qeR+mKxZJNjbRgk1z2ex5tnexMF3ELnk/L/hRh2cqgB9WzxTRCFAaY7mIzt7D61K85dFTA2r0AFVaMfi1JduhNH5aAbsSEHJ44qyZXnQrHtSIHOwcDNZynJ5q9bKxz8p2dznFHO5aIze4wIA2Dlj6VHOPlx5Rz6mrMrQxE7Tvb0ToPqagimmupTHCu5/SJC5H1PahU29y405MqmB9u5htX1PAqzZzCNhsXcfY0kqmK7aGSJmnU4IYbiD/ACrVsLQ3GwNG4cnAAKjFb06EXuactmd54e8VwzR21ncQTRy4CbyPlPpXZocVyvh/RT/r7pUO0jYM5P1NdUvWhpJ6HfHYsK9TK1VQaerYpFFnOaKiVqfuoGIaaacaaaQDabSmkoGJSHilzTSaAFNNNLmkoAKQ0GkNACUUtJQAlJQc5GMY70UAJ3pDSmkxQAlNNONIRQMYaQ04imkUANNJTvammgBKQ0tIaAPQ6KTNLQAUlLRTAKKKKQgopaKAExRRSUAFJS0lACUUUlABSUUlMApDS0hpAIaYacTTCaYDSaaTSsaiJoEKWqNm4oZqjY0wPPPiR4ak1AJqdlCWuVQxybRnjqD/AErx42n2YFfvuOWbHQ19MXcYuLaWFjgSKVJHbIrxjxToX9kXZhBBQjcHxjNZTj2OatT0ujiCWY809VwNzkKPU1ZFqTLhSAByWb+QHehLMylykijb1kkOWPsFprDy+0cqSZF5gQBlUBf78nT8B3q5AVuJIhvDsTgKcnHvgdPz/Cqcn2WIAsXnm7gninQm4kXMWU7BU4o+HRDtGOxtzaVZQ2/mzyPO6HG0fKn5VGl3JGjJY5QPxhPlWtfQNIN7ZywzBmkxkDrVu18PyqWVYdgHUv1FaKEt9hp3MB7NrWPz7h+WOQFP+cmruk2tzPIrlWVWO4n+6PStZ9LgVh5n70g8E1p264QKoAxXQmkrIahrcu+G7qWK+ls5hhXG5D7iurFciI2idZVPzKcgiums7pbqAOvXow9DWM1rc66b0sWc04GmZpM1BoTq1PDVXDU8GkMm3UZqPNOzQMU000uaSgBtIacaaaAEpM0uKQ0AFIaKKAEpKWkoASiiigBKQ0pooAaap2t99quLuHymQ28mzJ6NwDkfnVztzTdoBJAAJ60DEPWkNONNxQA00hp3ekIoAbSUtJQM9Cooo/GgQUUd6WmISgUtJSAKKKKAA0lLSUAFJRQaBiUlLSUCEpKDSGmAE00mlJphNIAJphPFKTTTTAYxqNjUhqJqYDCaic09jxULGgRFIeK808VwXmq608MsbC3g4RVH3vcmvSmqrMinkqCfcU07EtXVjyF9DlihkaSNsAYZz/DmuentYYiYldgncKpy1epeI4nS6hbGYJPlZe2axZtJtU+dYgc8810cylHU4p07PQ4+302N4leG2Zu3IrTt9LlIAbCD0Wt+CEJkjaFXt61beHMQYLjPSoulsgVPuS+GbVre53QJlwOrHrVvXLeZbsy5OJOWA6Zpmkogmw0TSeynFbd6qSWmDCQ3VVzkipcjRROV8v5RnvU0YUEU10cOQRtqSKId+SKVyrFkuPLwo3H2qrb3GpWt35kNudncE9RWlAdoGAKthQy5ouUkW7W8W6jB2lH7qe1WaySNpyvB9qtwXW75ZOD6+tQ0aJlvNPBqLNKDSKJgadmos04GkMkzS1GDTs0DFppp1IaAG0hpaDQA2ilpKAEpKWkoASiiigBKKKKAEpD0pTSdaAG0lONIRQMYaSnmm4oAYRRinUhoA9BpMc0UooASiiloASg0tIaBBRR2pDTAWkoNIaACkNLSUAJmkoNIaACmmlppoAQ02nGmmkAhpppTTSKYDGqJqmNRMKYiBqiap2FRGgCJhVeQVbIqCRaBGLrFuJrJsjlDuFYJjDw+9dTfL/okuf7prkUusv5Ual39B2q4vQymtSq6bW9qe9w0iKFAAWpp7chgZDyewqMR47UmyUi5pUM004wzAsdvynGa60aPKkW7EhbHJJ7Vz2np5BWbuCCK9HLKkCSnoQM1LZSR51qNmUO7HINUFXac11WqxLKC6AA5OR7ZrnZo9j47UDHRkjDCrSPkZH4iqaHaamUkfMOlMC2u1l4phWmK3GR1qTl8EHHrTAlhuCnyvyvr6VcDA8g8Gs8rTopTEfVfSk0UmaINKDUSMHUEHin5qCyQGnA1GDTgaAHg0UmaUUDCm0pooASkpaSgBKKWkoASiloNADaKKWgBppMU7vSGgBpFIadTaBjTTcU40hoAaaSnHpTcUAegYooooAWikpaACkopKAFpKKKYhDSUtJQAlFFJQAUhpaSgBKSlNNoAQ0006kNADTTTTjSGgBhFRsKlIphFAiBhUZFTsKiIpgRkVE44qc1E/SgRk6opNlIgOCwxWFBapbphFwT1Pc10GpH92o9TWSwqiGZdyf3p9qhVcmpZjmRj71JaQGaVVAJ9akRpQxBtL3fxLW3a6g8+ieSzEOnC89RWJuMcRiHQMRSxThLMoeGDZBFIZoxA3Kk571n6pa+S4I/GrGnSuhd8Er3qbUx58asvJxg0xGABg1IpxSFcHkUUDJhxyOlSKxXpVcOVqTeMZFMCwrBqDUQOeRSh+cGgCWORom46dxV9HV1yDWbmnRSmJsjp3FJoaZpinCoUcOAQalBqSyQUopoNOpgFJTqQ0gG0lOpKBiUUtJQAUUd/aigY0ijFLSUAJSU6m0CENIaWmmgYhHFIadTSKAGmm040UAd9RRRigAopaSgANJS0UwEoNLSUCEpDS0GgBtJTqSgBKSlooAbikpxptACU004iigBnekpxptACUxhT6aaBETCo2FTGo2FMCEimMOKlIpjDigRj6l99R6DNZki/KSa0775rg57Cs65IVCPamS9zEkHJrY8Ox7rh8/3eD71kyDBxWjpNwYRJt65BH4VLETPGRqM0J/vZFV1A8p8/eBGKvzIU1CYvn5o9yn8M1no4KSBup5H1zTQHV+HIkk01iU+YMR9apXtoYbhgAdjcgelavhplOkKOMhjVXU5S2o+QCNrgYJ7GkBy0qbZGHoaixWhqMBjl3kfe6/WqBpiEzzSZwaGpuRTAlR8VKeRnvVTdUiSY4NAE6ydjT85qB/UU6OXPB60hlmKUxN7HqKvxuGAI6Vl5zU0E3ltg9DQykzUBqQHiq6NmpgaRQ+jAHbrQKKQAaSlNJQMbRS96THOaADtSUuaTNAwpKWmbSHJ3Eg9vSgBaQ0uKSgQ2g9KWg0AMNBp2KSgYwikNPxTTQB3lLRSUAFFFFABRRRTEFJS0lAwpKWkoEJSGlooAbRRQaAG0lLRQAlIRS0hoAaaQ0tIaAEppp9NNAhhFMYVKRTGpgQkVGwqZhUbUAYN45Fw/1rOuiDGx6EVeuzmd/rWfcn901MzMx+aktGKTL7nFRsKF4NIDob9GQQSjk/6pvyrLaIo0qj+Hr+dWIbuSWykiYElSJA3pjio7vDXLtnhvm496EBe0+8+z2eQxDI27APXpUUVw89+ry5YM2CPYmqcUmwN71qaJbC8vcO5AUZGO9MRd1m0yjkJgcMB6etcw1ejXdms9s6gDfswK4C+hMFwyEYOelIRXC71bB5AzUBbFTxn5+KhuEKPx0PNMBm7NJuwetM6Cm7qQ7lyOYNwaGODxVINg1ZSQOuD1oGWYpQ3B61Nms8NsbI4Iq7HIGUGgZdtpiDsb8Kvq1YwbHStC2l3pyeRQxovA04VEpp4NIodSGikoAKSlpKQxKKWigBKKKKBiUlKaKAG0lOpKBDaKdTSKAENJTiKTFAzuaKKKACiiigApKWigQUUUUwCm4p1IaAG4pKU0UAJSGlpDQAmKTFLRQA2kpxpKAGmkNONJigBtIRTqTFAhpFMNSGmn1oAiYVE9TNzUL96YHN3B/et9az7vPlHFaM4/eH3NUbsfu/xpmZnAU7yztzijvV2whNySgPIpDILdwkg3fdPBqxcptjgcchl6/iaqEbWIPrV1WWTS2B5eOTgexoEVAcZ966DR3W1t/PbhidoP61z7Da454q5Le7bdYE+6M7j60xHWPqiR3C4l3LnJUemKwfEsMRlS4hOVkGcjvWUlwTznmte2RL2wNu33l+43pmgTZzsTETDtUrR72KH7vr6VPbWck12sSxMzbsYArSfT1RhuJCkAnHpQxLUwptOlSESqQyn86qrbSOrED7tdNbwx7hBLuMbk7T6mq0dsi3xhZsYB+YjilcqxzuSo5GCOvrTfMIcEVpT2E1zczGBQ6IuS2e3t61kOpBIz0pXGXGbeoYUkczRn1FVUn2LjIxS+ehpga8cm4D0q5bSFXHoaxra6UrjB4q9FPuIABoGjdRs1MOlU4m4FWVNIskopBS0AFFFLSGJSYpTRQAYpDS0UDG0UtJQAlJinUlACUhp1JQIaRSEU6koA7eiiigYUUUtACUUd6WgBKKWkoEFIaWkpgJSUppKAEpKWigQlJilxQelAxKTFLSdqBCUhpelJQAmOaQ0ppDQA0000802gCNhUMnQ1O1QuODTA5ycDefrVC7z5RPvWhMPnb61Rux+5amyDMOc1PY3TWl2ko5API9RUZX5M1BzkmkBo3xjeQyRjAYkgVDErnpwDwaZEd+ATwKubkVMcD3oEQyQgHDOAQKqNkEjrVqa5iKsCCWxgGqj5BB3dRmmIchwCx656VtafDIUMsTfLtyf8/jWGuSgX1PBxXR6PFLEhVyUhP3yew9aBElpDcQ3aTTE5BJKg9h1qfVpYy20BcICoA9MnGfwpLzWLZJM28QldRjzW71zd7qMszFpWyemAMCkBfN8IVVQAxBzn0+lZdxdxAtJK7vITwmc4/Gqcl2+35RgetVXlz1OaLDuacOvy210Z4okLkYBfnj6VlXV0bi4kmYBC5yVXoKYzgEYOKructmgLhkbvapUK9+tZWoah9h2YhaQscYWrySLgZDFv7o6/jTA0rYEvkDjvWlHIo4H51jR3OMB2Cr2AqxDfW0r7VkUlecA80DR0FnPvYrnOK0kORWFbSjeu0962ojmky0WRTqavSpBSGNxS4paKBiYpCMU6kIpANFLilApcUDGEUlPpKAGUUtBFADcUmKdRQA3FJinYopiO0oopKQxaKM0UAFLSCigBaSiigApDS0maBCUlLRTASkpaKAEpKWkoADSGlNJQISkpaDQA2k70402gBDTTTqaaAGEVG4qY1Gwpgc3cjEjfWqM4zC1aF4uJnHuapyL+4c+1UQZPt2qOZCq5A44zUgIkG5elClCHSRiAe4qQK6PtFPaYkVXPU46UDp1oEPZ9x5wKaHPGT04qF541bZnLeg5pA2Tg8UxFlJSDkHBHTFWPt9yyhTK233OaW107zYXkJbIUtwMjGO5qsqMQOw9TQIkeZmHzMT+NQyldoAXFTtCiD5n3E9hVWZ41PJx9TQIrMWORjIqFmyee1SSXQjBZSAvcmsqW/aaRhbxmQjq3RR+NOwrl1pEXk8n3qm92JG2xKZD6IOB+NZ891Cp/0mfzT/zyi+6Pqaoy6tcqm5EMFu58vcU+6D1I9eDT5Q5kalxqcMfEaJJNEDklhhc1SttehlcLICm4nDZ+U1FcaFqVlEzW1xaypjLFQM4IpmnaZC1pNczkSyiNgMjheOwo5fMLs1RrNiDgzpn6060v9L+2bopF8yTjaO5ri1tlIAyST6Vp2VvFasHJzN29Fq+REqbZ6PYXaDDyxGBx/wAs2PSujs50mjV0OQa8pa/bcZZ5mOeSzdzXYeFNWWeCKFj8zZ4z3FZyjY3i7nbIeKlFQRHIFWFqCwxSgUvajFACY5zSYp+KTFIY3FGKdikxQMbikxTyKSgBmKSn0hFADaSnGkoASkpaKAOxFFFFABRS0lAC0d6SloAKKWigBKQilooENopaTFMApKWkoAKbTqSgAptLSUAFNNPNNPFACUlLSUCEppp5FNIoAYaaw4p5pjdKYGDeJ/pjqe/NVJYC0LL0BGK1r+PbKsmM5GDVNn8yPIXA9KohnMqphRlPPbimywsFDMpANWblBFLJj7rHPNZ5ldWO0nBPQ80gI5GEfHeoo4Zbt9iHk9s4JqSUc7m71PpreXco4OCGHJpCK/8AZ8tvgtHhTzkd6dcwrFNgMNuAVJ7itHU7qKWdl8+KNRlgM5JyfasO8vLdACSz7e5OBTEdxol9bNozWrnczgoFVcnB71gSWFyqM7qUUH7z/KPw9axLTxLqIJh0mAKx4Lxp/wCzHP6UySDU75i99fEk9o2Ln8+g/OiwjQvpYtPtxJd3KIp6KGBY/wDARzWA+pzzqzQWywxH/ltOe3sKuJYW8BIWNTKP4nO8k/XoK5zVo5jebJpEQHq7Pk/gOtNICxJdWyvmR2uH9+F/KqtzNdXI4GyEdvuqKbby29uQIo/NcdJJB/IUy6lmuOXYkjt6fStLXVznvZ2K0nkRIQA0khH3ugFUpJGaFopGJQcqpPA9amkJCncc1RlYsCAce9Ital6DXrtNHOmL94NgP329hWusAs9FcSP+/lQrk+prlGjleVZImCuP4s4rStfOl3m5uDI3qTSlKy0G77kUO4SiJFYy+uP5Uya4jttzsclT096hn1Q2tw4iZXbGBzkCsR5WeYvIR8x5A6VSva4Rj3NX+0GvGDH5VHAFdL4b1Bre8jfPCkECuJtG2uy5rcsJ/LlRs96zkdET3+0lWWJXU5DAEVeSuX8LXoudNVc5ZOPwrpozkVBRLS4oFOoAbijFOpMUDG4op1JQA3FIRTqQ0hjaSlNJTAbRS0UgG0HilpDQB2NJQM45GDRQAUUUUAFLRRQAUUUUAFJS0hoAKSlpKYgpDS0lABSGlpKAEoxS0lACGkp1JTASkpaQ0hCU007FIaAGmmGnmmmmBUuovNiK9+1Yc84s1RHjbc7BFAHeukYVk6iod9p9Mg00SzEvbOWSNZDgtnBHTFZslpKp4j/GtzJlikRi24dRurLuTb7SzyEY6jNMky7gMowxHHbNZk00gyFbaPXNTX96rTCK2jZufmYngVz2razb2MhQZml7qp4H40KLYm7GmiFzjzCSeuOpqhdX1nE8iuqgxnBZvmOfTHY1gTX2qXlk9ybg29qhxhM/061ks1sr7vMmnYnJ3AL/AImtIw7mbmdK2ryvIDGzFVPCt0P4dK2oU8S6tErQW0jxngEKAP8AAVU8MwRyXkMs9qi233juUnPHQZr0mz1q1WAqyxWUacKZXC5HsKUgUkcZP4b1i2gWe/uo4EY4bDZYfl/jXJ3dokN0/lsz/wC03U16H4g1rSb2ERrO9xIDxtbCfXOOaxTa2L24lgd7lscxpEVUfVj1qSXI5JVY4CDJqw0MjL821Pxya1Jd8RKuEQH+FQOKpb1YlYwZGH8K1onYzn7xnSWisCACT6mqTrFCnz4bPGAcCtS+Eduu69vI4Vx/qo/mY1zF5q67itnHsA6SPy3+ApNNl00W7q6W3hUkbDj5Q3B/AVizahLJkKxVT1weTUEkjyuXdizHqScmo6VjdIWpEikdGdVJVRkn0qMV1WgQNPpoRo8jzDyy8bSOfr/9amlcirU9nG5zMTbZFPvWtG23BzVe90u5t552ELmKN+WA4qRD8gPaokjSEk9UemeB9S2yohbhvkP9K9MiORXhHhm8MN0FzjPT617ZptyLm0jlH8S1kaGopp4qJXAAyevFSUwFooFFAxtFLSGgBtBpaMUAMNNNPNNoAbRSmikAlJTqSgZ1xooooAKKSigBaKSlFAC0UlFAC0lLSUAFJS0UwEoooNAhKQ0d80tACUUUUAJSGlopgJSYpe1FACYppp9NNAhpFNIp5ppoAjYVnX8YZA2Oh5rSaq0yhkIPINCEzn5THEWc9a5HVLmKGSaeVgkQOcHvXT6vCIBv3DYvO3PX2rzXXo5NQm33EuEU/KinitIxuZSdjG1jxBPJJ5MDrHGyg/u2z19SKxJ4nilAZ929Q+c9j61NcWtvbycu7Y7YAzVVhECCqsfqa6FFLY5pT11JYbWSddu4iMngnpmrkVtaWo3Ft79hjNWNOgeWDywAGJ+VD1P0qdLcId2wAZ6+lSZOUmPFxO68PtXsGOTUkETSuCcsf7zHAH4mliuLSJCzozy7uijqPrVO5vGLEqvlpn5d7c4/GpsO50dvFp6ABpvPl7pEMAfVm/oDVo3lvapsFykUZPMcbFs/U965zT4YrpXknedh0CqdoJ+vWrE9kj2zJGu0445OTS5TVKTF1nX9JWJUQu7DqFAXNcld+IbiVTFbqIIz/d6mtOHSbC73IUaNySAQx61halpU1hOUwXQ9CBVpJFqNtWUXd5HLOxZj3JqMrTq6zRNIsHsUvJD5rkZ2twoI7VdriqVFTV2c1YaXPqFwIoxtGMlm6AZ61u3Hhy2g0yRF+a5XneTjn0xWz9mlklR4AkKDjfs5Zew/WprWCS5a5gjBlm3FdxH5ZPpS5UtzjniZza5dDB0zwukeJb9gTjcEB4H1rrbDTZJwAqiKD+8FwT9B/WtLTtBW3UPdv50uBlf4Rj2q9eXUFlD5krBR0AHUn0ArKU0tIm0aU6j5qj+Rl32lecsMEZRLZc+YuTlsgj8eteZTQPa3M1rIPmicrXb32tMSl7PIYLVGzGg5aQ+g9fr0HvWH4vt1S/gv4xiO5QbvrWUXfQ6rctrGXYymKZWHUGvZPB1+LiyMZPK8j6V4nE2H9q7/AME6l5F4iM3yk4P0NQ1Zm6d1c9cQ5qYVUhbI61aXp15oGPxSZ5xTsUYoAbxzSU7FGKBjMUlOIpMUANxTSKkxTSKQDMUYp1JQA2kNOpKBnW0GiigBKKKKAFxxRRmigAFFFLQAlFLSUAFJS0UAFJS0lMQlJ3606m4FABQaWigBtFLRTAbijFLR2oAaaDS0hoAaaaaeaYaBDDyM1BIKn6ConFMR5x4o1RJtauNLY+RLEgkTccCVSAcj6EEVx17EyQs0iEgg8eteg+PtFiv9PW6aJWeA4zjkA15BfPPHlBLIFHbca1hJGM4yexC1vEXJO1e/NTRRQbgFAA71zVxd3IkZWkOQagM8rfekY/jWtzndKTO2Orx6dNG9rMkTpk5Q5b86wbnXBJJhd+3PJrGDsPukg+opu0k8DNA1RXU3v7TiVHVbiYEEFSvGaW38rVGl+XbMBkY71m2uk3t0cRQNj1PArdsdAu9PYXjSKWjPMajORSswdSnB2uauj2z28LqzE5OR9K3LayuLgjy4mI9ccVqaLaWK2sUsigSg/MG5+tas979htvOigcqDtG7gD/PFCuyJV7O0TlR4Z+zag7SycsQ4RavawumRaS/yIzMhxt5NUtbvby8t/MjbYyc7U43D0NY9lKJ4ZLdj1G5aGxKlKT99nASbTM2wHbnjNdN4Tmk/ewCFpSCGjGCcHPNYeoW/2e/lTGBnIr1zwpa2sOg2rW6Ll4wzMByT3puVlcupHmXIQ2+jTSnfcHylJztU/Mfqe3WteC2htY9kKKi+1RX+rWlgGV33SgZ8tOT+PoPc1zeoapPcQGa7mWzsu2c/P9B1b9B9awlNvcdOjGGxqX+uxxN5FoPPmJxkcqD+HU+w/HFcrqGorFcETk3uoN0gU5VP98jgD2H4k1B9ru7/APcaZFJawOMGZhmaUe3oPpge9Rj7HpcbxwLHNOP9Y7NmND/tt/Gf9kcVk3c6UrCeSfMW/wBUlaSV+Io0HJ9kHYf7X5etTatYtNpKmSYEmPMKbPQ+o4xg8fWprHR5b7df6lK8dsfvPJxJKPQD+FfYcmtB5bGV4pma4hhQmOOFELKwGD0A47UR01CWuh5/A3G09RW9o9yYblGzjmsrUbY2OrSRFWVSdyhhg4PIqS1cpIOeQaua6hSelj37R7sXdjDKDklefrWzH0rg/A+oebA1uT/tCu6j5xUGhOBS4oA4p4FAyPFBFPIwaSgZHikxTzTTQA3FIaWkpANxSU6kNADaaafTTQM6yiiigApKWkoAKO1FLQAUUlLQAUtJzRQAtJRRQIKKKKYCUUtJ2oASiloxQAlJTsUlMBKSlooASkpaQ0ANNNIp5ppoERmomFTGo2FAiheW6XFvJE4BVwQQa8c17QoYbl1cvGQSOBkV7Y44rifFtp5Uy3ATcjj5h71cdzGtflumeM6hoUJbct0Q5HG5MA1UsfD4uFbzZ9jq+woBzXa3klqxMc6kBgRkpyAeePof51zqeV9pikcnaf3ZOcYYfdP9K6Ujzfbz1VySPw7p1uMys0nI6nFSXUdjp8IuIIYyYm6KM7lPWrCm3RwyjfuwMbScnNTyxm6heEwMIWHG8gYx/k1VjndSTfvO48TtPEHhgCxNh1Zj/ID2p6wO65ebgHb8vHQcH6YNZLG50+8tLfeVt8bcgZ2gnjr6HvV24igt4BuuUEw6eYc9+OPpTRMo9jstGu7OW3UJteZWCsF+Yg+5qXVNSkZWtmhABHVv51xejXlwmqP9hM2y4I3YXCj0xXdNpMlzIZrlgnHzBeTnvUOyZ0U7aX2MAJkYrAvIH0+/3BcAHeAePlPWvQ4LS1s7llwHzgqSM9OorA8VafJKpvQgVU5wepU9aW50qqrnneuxL9uEgPysMiuh8K38sui3VityYGh/eK2cfJ36c/lWRfwNPbgKNzIeMelP0mOfSL63u5kxEzbHU91PByKpxvGwSqJMuPqseWXSrf7SwPN1cDbGp9Qvc/XJqN7FY5Fu9Yunlnf7quu52/3I/wCp/Kr2pTNp16bSyiWJv+WcgAllYH/nmg4Ue9Ps/DU7K13qkxs4W+/uk3TSf7z9voK4TtTVrmcZbvUZTZ2kDqG+9DG2XP8A11k7D2Fa9vpVlowSbUClzdoMxwIMJH74/qatrdpBCbPRrYW8KfelIwR7knp9Tz7UyC0VENw8gAzk3Eg6n/YU8k/7R/CiwmyGQXOo3CtcAknmOBeMD1P90e55PtSS3EFoUYFXlBIjbkAsAcKgH8I5zTNR1OK0RreNCGYbjDu+d/8Aakb+Ee3WsOBZ725+1SyhUQBjKflUKOwHZf1NFxpDPFVtM+LyVojKCMiN8/KRwcdQM5/OsWN/uNnrXarbxazazIpTbIjSIf4nJPBPoBjGK4ZQU3wnIdD0rRaxIT5ZHdeENR+y6jCSflJr2aAgqCDkGvnfSbny5Y3B+6RXuvh29F3pkRzllG01mdBuqKfUampBTAQ00inmmGkMaaaaeaYaQDDRQaKAEpDS0hFADaQ04000DOq70tFFABSUtFACUUUUALRRRQAUUUZoAKKKSgQtFHaigANJS0UwE70UUUAFNAIJ5zTqQ0AFIR70vakoGNIoIp1JTENppFPNN60CGGmEVJTDQBCw4rJ1myF5YSR9GHzKfQ1ssOKrSrnIpktXVjx3V7GZUdGgZj2ZRurk5baRJHRkZd/KkjGGHIr0nxMk+m3jGBiEY52nkVxuravPcWrQyRRnuGA5GK6oNtHj14xhO99SjFd3E8KFbQkZzuZwOc/41N5t+7BQ0Ma4yMfN0qtaTMWMSuFWT94oK556Ef1q0qGOYq07EEBgRgfWrRzy0GG0eZpku7t3UDcAAACvf9aqwxWcLSPgGSGbKkjduT0NXZre0mVlkcs20AEMWbPX8qkSYrblltpCNpJXaAOOPxphzvoTxXzyTIttCUZVDoW4yOldxZXnn2sc0srNnG7b8oHY/wCfevPLKZ7y2SaP90kRKKAMsPqfeuh8NXMFvI0N7NvdixUM2cj1ApSV0EW1Kx1AuIrRGkHIzn5RnHqM1Bq1tLe6bKXwFQByF6kd6n+0G4j8pITIrEEk8Diqd7JMoa33nyscD2qVE1UtbHOt/ZumwsoKq2M4+8xBrkr7VTNIyxJhSer8npiteTT5Zr+W3VWY7SVOPSsm50iZLWafHMT7XUdq1SSISV/eOp0bUnl0SO4gtkmvUIgZ9uWAHTp1/MCk+zXF9c7p3e4mU/cRsKn1bov0Xn3rE8K3ax6g1pMMw3K7SuccjpWnqWtrGHtkVJBEdrRRny4I/Zm6sfYVx1o8sj06EuaNi47W1rGSzRSiLv8Act4j/wCzH8z9KwL/AFyWeQfZ3cs3CzsvzsPSJP4R/tGq5W91aZM5kx/q8phFH+xH/wCzNxTmez0+Roo0+337feQNlR/vt3+gwKxudCRDFZJHAbq+kWG2znk7t7f+zt+gpkryahtDRtDZKdyQk/NIf7z/AOH9Oal8iW4uBc38nnTjG1cfJH6BR/n2B61PDby3srx25AVP9bO33Ix3+p9vzpDJLOSHc6FZTt+/5WckEcLkdAcfoOgrndbhSDUknicOkqgsw/vd66iFw0v9n6co+zqC08khxu/2nPv2FVNctZLyxkeSJd6uSjIePlGCqj0AHX2rSm9bET2uc9aNskx2zXrPgPUtwEDNwwx+IryGM4Acdq6/wpfm3ulIPIIIpTVpGsXdHuEb5yMHipw3FUbadZoElU8MARVgNxSKJ802mhqXNIYhppPFOzSGkAw0nenGmmgApCKDRTAbTTTjTTSKOq60UmaWgQtJS9qKAEoooNABRSUtABRQKKACijNFABS0lLQIOlFFLQAhFIaWkNABSUUdKYBSUUYxSASilpKYCGmDqRT6aRQIQimEVJTCKAGEVA4qfJJIweP1qNxTEcn4tsTPY+cq5MfXjtXll7HGGIaI/gcV7ndRCWFo2GQwINeV63pUUdzIsgaIgn5lGR+Vb0pWdjgxlHmV0cPhBJt2nbEwcAnnb3FXhcWAA2jd6fISaW7sEtz56XUL7eqcgkfQ0Wk8oUwrGGWPA3ZwcHofyrf0PNe2pIl9gkQ2kzs3T5duP8/1pr3GopHuSGOMDGSzZIH0q0HnYnakYA7ls444pJ43SFhJIAm3GI17fj+NMm5DFpjOpaS5Kr3SP5RVi1FnYTBo0DOMcjls1UtZLYySRSuz+U2FLNnK9sCnadcXBLxCAko3GQAAD0z/AJ70wdz0XTruae3BBA6Alv8AP+cVb+zRO6tOQQAeemPTisHw7LK7PDJII5ACSPw962LeRIGP2p9zA7gTySPSs2rbGsXe1zEvVMV3GLeJ2CHGc4VhnOc+tZmp2avO6yyqEl67PlAyOCT36Gug1UTlTJbQ7FJzl+g9f51hPaCZzJeyGQAEE5wBjj/P0qomc076HGtbPaSrJE+SpyGHYitvU/7N/cavdSttuFBSJRubf3CjoPqc1Bq81vJ+7iYkI3y4GBj/ADmpdHdbnT7mybHmQ/v4c9QP4gPT8xRiIc0LnTg6rUrPqUpZ72+Ro1T+z7NvvRocyyf7zH+v5GkWO3sYSECxxg8k9z79yf19hVq1hudQcrYxeYo4aZjtiT157/RfxJqyTp+jlZAwvr77qysuUU+kaDr+H51556xBDp0ksYnvme0tD91MfvpvYD+EH8/U0u+XUk+zWKJaadD96T+BPx/ib9B71NLZy3GLrW5XjjcZW2B/eyD3x91fYcetRmSbVosQlLLS4Oso4RAP7v8Aeb36DtTEQ4Ex/s3TQY4E+eaZ/wBXc+voKkjkieaJbGUGN8oWuAWLLzkr6DjJ+tRqg1BBY2EZg01Pnd3ODL/tOfT27/SrtvMHs5ktlhjsSpjjlnyDM38TDHbGaB2OFuYDaatcWv8ADk4I6Y7GtDSrgwXCEn7p5q54l00QWVhfxENhBG7KMDjpWRE+2UEHg81tNc0VIik7PlPcvDF8J9P8snJjPH0NdAH4rzTwXqRWeOMnhhsP9K9BElZG5cElKJKqCSnh6Qy2H4pd1Vg9L5lICYtzj2oJqMSUu6gBxpM03dSZoGOJptGaQnNAzqqWkpaBC0lFHWgAoopBQAUUUUAFFFJQAtLSUUALS5pKKBC0UlLQAUlLSUAFJS0hHOaACk5paKAEpDS0UANpDzTqSgBhFIRTiKSmIYRTGFSEUhFMCo61xHi+0aOVblBw3B+orvGWsnW7IXumyx4ywG5fqKqLszOpHmi0eQXkiSRSKIo/MI4bj+tYULvE6gsU/wCWb4xz3WunkiEF03mKDG3ynjOK529ii85ijKFl+Ur6Hsa64niTTUtS8qRAFpLplOem4DvURm04R73m3sedrMTk1UsFtXhYy2+1lbaSVJB45q48UMkY8q3IYEOpEeOf/wBVUZtJPUp2DpbzXBhR5hKflCLjaQeKuCW8BLrCkJfCl3bPBPpViEzLNIIbcKsjbgrHoe/9KpajeXVnL5BWMDGQcZz+dNITbk9DVsI5Yr2Oe4uZGAwGxwPp+tdxutVt2CuhVgNpHJryKS9uZAAfNkz2GTXceFYrq709o5RtkhGQrHkjrRKJcNNza1rUmfT2Ma4K9eM5rgpLm5u33ESOc7QCK9Ni0yDaVlbcCMn6Yrmry3+z6gwto8xOVfAGNrg+voeaKckthV1sczHpDyASTv5asu4AckjvUW1tI1eG4RCYkOHHX5Twa6RoZCoFzhBndtj/ABzk/wCetZty9uoktolM24dEH9c1fNzaMyTlBp9izfw6neXDwReXb6fGARM4CxBcZ4X+I/Xj2qj9pstKkCWCSXd/IMCeRd0jf7i9h78D61NFG99o8cdxfpaixYx3Ejc4X+EgHjPvUEN0sZNvoFq6tJ968mXdLL7qD/M4FebOPLKx71KXPBNDZ7VISLjXZGklk5Swibc8n++f6cAUNFPqiC5v3jtdOh5WMf6tB7f32/T61KLS10yfFzvvtSl5+zI292P+23p7cD61JcKUlW41dknuEwYrKP8A1UPpn1P+RUmhA4S6tg0iPbaSDlIjxLdn1b0FVHefVbzyoysSRr8zYwkCf4+g/H0p5N1rN1IVkARP9bcN9yIeg7E+3bvmrtrZi6AsbFWjskbMsrfekb1Pqfb/APVSHsEkNteaBc2SJ5dvGNsTufvH39yf51wMZZVKMMOhwRXqt7YxLZRorrDFDkksM4XHP4+9eZQIdU8SSw2oys8p2D2z1/Kt6fwtMzfxXR0nhS5KalbjsXH869VWYEZByK810LR3s/FMluctHafPux1GPl/z7V3qyYArOSsbx1NES+9SJLWasvvUyyVBVjREmadvqmklSh6BljfTg9V91LuoAs76N1QBqcGoAmzRmow1LmgZ2OKTFSEcUw8UCEFJS0lAC0UgooAKKO9HegAooooAKKBRmgBaKTNFAC0UUUALSd6M0UAFJS0lABRRRTEJiilpKQCYxSU40lADSKTFONJTASkNKaKAImWq7rVtqhdaYHlnivTDa6g7ICFf5gRXKalZ+bZLJGxLn+E4PI681654nsUubDzCOU7jqBXmNzZs0pRcc5Iw2MmumnI8rF0rSujn7WeRXZBsAlUn5+zDhv8AGtO3t7tI1jLRMQPvck47VkTxPFdSRsG3K3mrk8n1/MVoxT2TBj57gDhcuf8AOK2OGRdEMrZzcKvBHAAxj/P61UuIIyoMrh3jkBG5s7lz0xSm6sFY/MGIxgnJz7f59aSO9SNplt7d3Bw6kJjB7/hTIsXUaMDNtC+3kA7QuBz3/wA9K0tIvJbTUYbhtkaFgjDrwcgVhWr6hhvLREjkbeoduRmnm3uSkcj3OIQ5RwvygLRYWp6cfs0UYYyAhQQCT2NYV9O0wlit4t0kJCktwuMdf5U/Q7q2l0preRl85BtPzbjgnINGoSTPqhe3twokRSxbpzkBqhI2butDnprCRz595cblPO1DgYP+RWddavYWlttgUmQqAdvUH1z+VXdY0ud7KYzzuZo+yjC49K44WsvkPK0Z2LjJ+taxSa3M1FX10NTQ9TS512SG4ULDfLsYejDkH61vMt4UkS3jGkWIba9zLzNL9K8/LNDMHQ4dGDKfcdK7q4W81tbO7soy4niyzO+EiI4OT1/AYrnxULPmR6mHaS5SBr610uB0sFMKtxJcynMkh9z2+nX2FQxafJcxC5vne0syeF6TTewH8IP5nvVqG3s9PmQp/wATHUPuq5X93GfRFH+fUiti10WW5l+1am5dj0izx9D7ew4+tctjrvYz7Wzl1NEjijFrpsXCqvf/ABPv0+vWt5IYbSAJGoSNRViV47eEsxVI1HJPAArzTxV4wa9LWWnsVt84eQdX/wDrVpCndmcpDfF/if7bI1hZOfs6nEjj+M+n0rS8H6I2nQi9uFxPN91T/Av+JrN8L+Gi7JqN8mE6xRt39zXbrgyDrwDge/rTqSS92JpTh1ZdR44pS+0B5cAnHJxVo8x5HWss3ISRFAz9avxSEjmsTUEkyaso9Z7HZKRU8clIs0EepleqCSVMr8UCLoapA1U1kqRXoAshqduquGyaeDQBODT81AGp+6kM/9k=;" vertex="1" parent="1">
          <mxGeometry x="76" y="935" width="146.67" height="110" as="geometry" />
        </mxCell>
        <mxCell id="USX80gVfWroeQub0HQB3-150" style="edgeStyle=orthogonalEdgeStyle;rounded=0;orthogonalLoop=1;jettySize=auto;html=1;entryX=0;entryY=0.5;entryDx=0;entryDy=0;" edge="1" parent="1" source="USX80gVfWroeQub0HQB3-147" target="USX80gVfWroeQub0HQB3-125">
          <mxGeometry relative="1" as="geometry" />
        </mxCell>
        <mxCell id="USX80gVfWroeQub0HQB3-147" value="" style="shape=image;verticalLabelPosition=bottom;labelBackgroundColor=default;verticalAlign=top;aspect=fixed;imageAspect=0;image=data:image/jpeg,/9j/4AAQSkZJRgABAQAAAQABAAD/2wBDAAgGBgcGBQgHBwcJCQgKDBQNDAsLDBkSEw8UHRofHh0aHBwgJC4nICIsIxwcKDcpLDAxNDQ0Hyc5PTgyPC4zNDL/2wBDAQkJCQwLDBgNDRgyIRwhMjIyMjIyMjIyMjIyMjIyMjIyMjIyMjIyMjIyMjIyMjIyMjIyMjIyMjIyMjIyMjIyMjL/wAARCAGAAgADASIAAhEBAxEB/8QAHwAAAQUBAQEBAQEAAAAAAAAAAAECAwQFBgcICQoL/8QAtRAAAgEDAwIEAwUFBAQAAAF9AQIDAAQRBRIhMUEGE1FhByJxFDKBkaEII0KxwRVS0fAkM2JyggkKFhcYGRolJicoKSo0NTY3ODk6Q0RFRkdISUpTVFVWV1hZWmNkZWZnaGlqc3R1dnd4eXqDhIWGh4iJipKTlJWWl5iZmqKjpKWmp6ipqrKztLW2t7i5usLDxMXGx8jJytLT1NXW19jZ2uHi4+Tl5ufo6erx8vP09fb3+Pn6/8QAHwEAAwEBAQEBAQEBAQAAAAAAAAECAwQFBgcICQoL/8QAtREAAgECBAQDBAcFBAQAAQJ3AAECAxEEBSExBhJBUQdhcRMiMoEIFEKRobHBCSMzUvAVYnLRChYkNOEl8RcYGRomJygpKjU2Nzg5OkNERUZHSElKU1RVVldYWVpjZGVmZ2hpanN0dXZ3eHl6goOEhYaHiImKkpOUlZaXmJmaoqOkpaanqKmqsrO0tba3uLm6wsPExcbHyMnK0tPU1dbX2Nna4uPk5ebn6Onq8vP09fb3+Pn6/9oADAMBAAIRAxEAPwD1jFGKcKKxLEAoxzS45paADFGKXFFACYoxS0n4UAKKMUtFACYoxS0UAJijFLSUAIeKaFJ5P5U+igAxRiiigAxSYp1JQAhFLiiigAxSUtFACUmMUtJmgBKTFOpM0AJigCjvRQAmO1IVzTx0oxQAwLTsUtJQAYoxRSUAIwpQKDSigANNxSk0meaADFJiloNACUmKWigBKMUuaSgBMUU7tTaADNL1FIaFPNAxcUhFLmkoAQikxTqTNACYoIzS0UAN/ClxS9qSgBCKQjinUhoAbijFOppFADSKQ9KUrmmlfrTA0aWgUUCE70UtJSELRSUtABRRRQMUUUUUAFFFFABRRRSATFFLSUxBRRRQMKQE56U6koELRRQaAEoopKBhSGjFFABSGiigBKWkooAXvRRRQAUd6Q0tAAaSijNABSUvWkNACGgCiloAKSg0lACmkooNACUUlGaAFpO9ANFABSYxRRQAd6U0lBoAKMUUlAxaSlFFACUHpRSGgQtJ9aUUGgBvegil70YzQMbSU7vQRxTAvCilooEJSUtJSEFFFLQAmKWiikMKMUuKKYCUtFFACYopaKAEopaMUCG4paKKACig0UAJS0uKSgAxSUtJQMQ8UdelL7UmKAENFLikxQAmKAKdRigAxTHOBT6YRuagBFU96dilpO9ACUU40mKAEpDTqbQAgFFLSUAJQaWkoAKSlooATrSEUtGKAG4paU9KTFACUAc0DrTsUAJQRR0NLigBnelx3pcUCgBKKazAGgNk0AONJiloxTASilpKQCUtJjmnUANxR2p2KSmMu0UtFAhKSlpKQBRQKXFIAopcUYoAKSlpaYDaKXFGKAEopaBQIKKKKAEopcUYoATFFLRQMSilpKAEoxS4pKAEopaKAExRilooASigkDvSBg3SgBCpbIzilAwMU7FFADTTVyyhiCM9jT6SgAxSGnUlADaMUppBQAlFOxSYoAbiiloxQAgFIadSEUANopcUuKAG0lONJQAlLS4pO9ACUlPIpuKADrRijpS0AMKg9qTaBT8ZoIpgNFKKSloADSClo/CkAlFHelpgFJS0UDLtJS0UAIaSnUlIQmKXFFLQAlLRS0AJRRiloASiloxQISiiigAopaKAEpaKMUDExRS4ooAbSU6koAKSlpDQAlLSU6gBKKKKAExRgUtFABSGiigAFJS0lABRiiigBpoApT1ooAMUlOpCKAG0UuKTigBKKUikFACUUtJjnNABRQRRigBKKKMZoAKKOlFACYopaSgANFGKKYCUhFOpMUAIBRS0lIApaSnCmAlIadikpjLuKMUtFACYpKdSUmITFFLRikAUUUtACUUUtAhKKWkoAKKWigBKKWkHPHcdqADFKKWigYUxiFUsxAUcknoKrz38MORneR129B+NcV411C9+UxSM1ngq6jgZ9fejrYDuLe5gu4vNt5UljyRuQ5GRUteReFfEraJqJSZmNnMcOo/hP94V6r9rhaJZUkVkYZVgeCKbVhXJqKzZNVjVsAinx6gj9xRYZfoquLlD3oNyvrQBPSHODjrVc3SjvSC6GetIC1S5qsJwe9PD5ouMlopm6gtSuA6imbqXdxRcB1FNzRuouFhTS0zdS5ouA6kNNzRuouAtFJmjNMAoNGaZuzRcQpPalFVp1kZMxttYHP1p1vIZIxu4YcGlcZP2pKSl7UxCUc0UtACdqDxS0h5oAF5oNA4oNAAKQiinZyKYDaKKWgBuKKWikAlLSUUxjqQ0UlMC9S0UUCExSYp1JSASloopAFGKWigBMUUtFMBKKKWgQlFLWD4g8R22j2shMih1HzMTwv8A9egCLxV4mXQtPlMGx7sAcE8ID3NePaf441ix1yW/guWl80j7S03KuoP6e2Kzda12fxBfSzvK0Vkpwznq/pWVKweEM37q2B+VR1c1tGCS1Now7n0fL4t0pbCO6hmFx5kYkVIzzj39K4y98Qatr0u1JPs1vn7icDHue9cJ4WvW3GG5VUt2OI1z0P8AhXbxgL0rOyvZEVIShv1Niylt9Oj3f66bGNz9B9BUV1OdR3eZ8ykYwRxVJjtUMx/OhHLNyQqdPrTaMrnIala/Y7towcp1VvatTSPEFxaWxtHctH1TJ+77VpavawXNkEUAOpyrH1rkOUYg8djTQHSpqVzcS5UmtaC8miUFyRWHorpFKplIIPOa29TubcQfIRnFNtDRei1gd2qwNUB7159/aBSVvm4qwmr4/irNopM7oajk9asR3YbvXCprA4+atS01RXxzUSVho7GKbNX4m3CuctLsMBzWzbTZxUDL9BNNDZpDzSuOw7NLmmUtFwHZOc5ozTaWi4C5pc0ynCi4hwpKM0tUgE5pN4GATj606kZVdSCODVIQEZFNCYzzSqAqhR0HFKaAExmgAdQBSdDS80AGKXFHWloAKKDxRimIKQilpDQMbRijnNA6UABpM4o69aMUAGaWm0tAhc0hopM0ABPNKDTe+aAaBjqQ9KM0hNMZo0tFFMkCKSlpKQCUtFFABRSYNLQAUUUUAFFRzTR28LzTSLHEgyzscACvIvGvxNkkeSx0k+VajKvMR80n+76Cmk2I7TxF4zs9NiljhnTKD95LnIX2Hqa8R1/xDPr0xklZorFG+VM8yH/Gs26vpbwLJdMwgX7kQP3j/nvUDliwkmUF8fu4R0UVtGCjqbRjYeZF2rLcKBEv+qgHf6+1XNPiW6uhLeDoCVTstV7ezdpFuJ2Bz1z2rSU20UjOpzzgVz1a3SJ3UqFleRLZN/ppnhX5UGSD0rp9I1b7ZmCRsTJ0/wBoVzgf7NbvJwN44qtZXEsKtKr7ZA4Zc96whJxdy61FTjy/ceg7yzZJzip1Xdg5rIs9Us7mzE73CREEKyHqD/hWikjbgqvDJC6nDxvnBxXVe+p5EoOLsx13cQWyK16/HVY4+WIrnr6a3uppJLOBwhHyhjzkCtPQ9Cl1nUpbRgUjkOBNIDtX8fWu4T4X2GnW9xcTajJtWIkFsBVIHU0xHj7avNCDDHgMThjjt7UtpJd3cy263GM95G4A/Gn6jZWsGpNFvKB8Mkn8J/wrJuoZrabD8g/dYdDQB0WpaVJZRLKsolXHzkdj/hWQ0pzwarxX1wqlfNbaeCM1bt7OS8RjCVyBnBOM0ncaIxM2eta2nXhDAE1hurRuUdSrDgg1LbzGOQVD1LPRLG7yBg10lncZA5rzixv8Ec11Wn34IHNZtDO1ik3CpqxrW6DAc1pxygjrSAmozTQc0+kAhbHNANKRRQAmTmnA0nenYpgKKWkpapCCijNN3DPWncBcUUUmc0CDFOFIDzilpgGKWigimITrQaKTNAxc8ZpDSdqXPFACUZpMjPFGcUgEwc0UuabnmgA70UZo7UAFHvRmkNMQUhNHejrQMAeKDSGkLUwNWijFLTEJRRSGgAooopALSUUUAFUdV1ey0aya6vZQij7qj7zn0AqW/vY7C1aeTkgfKg6sfSvE/FvinW55mivbW2TOdkqoG2rngc5/+vTSu7Ak27Id4v8AG8+rvtZjHbA/u7ZT1929a4OY5k8+5G5z92L/AD2qRvtEU4lwlxK/IwucH6etVkndJWLHM5PU9v8A69dCskbxp22HtG8bedcYMzfdQ9F/Co5S9nOkjgOHGSRyc1FdQXGBJksByeeQaswk3tgYGHzjkEnuK56lS+2x0xhyPXck+3CRgR/qx2ParMckfz5wQV49jWFh42O04YcEU9L/AA2HQj6Vi6dtjoVZS+I2zdGRAj8gHirACRRENy7DqO1Zcc8ciblYGnpMxPXIrI3Vi35htJxtbcHHQ1uafBLHdRO1x5cLEF3xnC9+K50Mssq+iit60lV9MAJ5jyCfaj2sobB9Tp4he9o+56fbapcT2KxyOsdpHj7LEwHmkf3mPb6VneJ/FmoSWKWcjjaVwqf3j3Y/Tt7/AErx6PW7+2uGlguHX5shCcj8q6W2u5ruATXp2zEDOe1dXMla55FTCzjfl1RFftNdWxZl3mI/e71kiaRozGWJj7D0NaU7zW12QrMuDuBU1a1i0tbzS49ZsFEcm4R3cA6K56Mo9Dj860WpyHPjOau21w0YIR2UnqKrRyq3DcVfit4ZFyJAkhHGeQaGMc7/AGtvnI3Yxu71Hd2ctk6bypV13KynORQI2jkwwwfalnfeybzlelS0NMbFcFO9bVhqZGPm5rAlTy2AzkHpRHKUPWoaLPStP1PcB81dJa3gYDmvKLHUSjAE8V12maoHAG6s2rDud7DKHA5q12rBsroOo5rZifco5qQJaKUUYpgN704H0pcUUAH1oopKYBk5oDLnqM0U1kDdaBEvakPFRpuGQWyO3tT81QBThTaM0xD6TtTd1LmmAUhpTTAc5zQIWmOWA+QAn3p9JSGIAQOetBooNABnim9+tL2ooABRzSUueKAAUhpAwPSlJpiG5pc000maAHUw0pamk1QzaooooEIaSlNJQAtJRR3pAFGKKM0CON8X6Lql4Ptlq7yPEP3aRnBH4V549tMm6PUoWkvJuNrL098ete6Gql3ptpfA+fCpYjG8DDD8aqMrFxlY+eNQ8P3NnOBbOJSeynlT6Uf2LFHaN5q7pyfmb09q9Z1LwCNhaxmJIOQsnX865K90q50+fbdQOPU44IqK0pSVkduGrxi/eVzz24s5rZiUZinrWfGZbWcPGTjPIrtr+0eMlkO6F+hI/Q1gXOnE/NHx7GuaMmtGehOkqivAxZoJpbh5I8BXOcHjFMk0+4Zgcpu+takYKZR159DTyMKMLuX6Vp7RnO6SM8aROUDb0DemT/OomivrVvmXcPY5zW9BJIVaMj5SOM9qBbzKdjR7y3THNHO+o1CL2djLtrmMqQzGKT3FX7SLVb+yufsyiWKPmVYeWx6464pl7ZRzKUeNo5QOuKzrO5vNGu1likKsOhB4YdxSST1W5TnOHXQ0tFshNdtLKuEjHcfxVtsjSkWNlAZ7qQ8c/d9z7UthPPe+RHaxeZd3PKr1257mvSdA8OwaHakcSXUnM0xHJPoPalGLm+eReIrxowUY7s84vfDWq6fZrL9oFzIB88YH3R/snvWYk6+Q0YcFJAA6t1yP5EV6J4v1e10mHy4wst4wyIs8KPU157Db6lctJqEkMYYjJRkA3fQV1xva7PHlBy96XUqSxvAwWRCAwyrEY3D1qSKYA8ZFXZ5Eu4Y5SdsigI0R5wAOoHb6VlybycEdD2oTuYuLTszV8zzEy/5jqKqlg2RnnPUVWikkHc4qzEFkGH+Q+oFAiHW2kF0jQAhfLxx1HNRWc5mjIb768H3rovEFhDJa2FzG8J81MgRNkpjjDehqtBFaLamRiglZtrjIHAHWp3NL6FFWI6VqWF+0TAE1lyJskK5Bx0IPWlViDmpaEekaRqPmBea7KwuN6jNeQ6NfmOUKT3r0bSbsMqnNZtFHVjmnVDA4ZAc1JmkA40w5paKAAEYo7UgGSaU0AGfWlpBS0xARTWGVIp3SkpgMjDjIY5HY0/GKA2c9ePUUtMQmOadRilxTAac01k3rg08nAzUQlLD5EJ+vFAAuV+U9PWn4o/n3paBDelIadSdaAG45pcU7FBoGNpu3PWn0hpiG4AGKaaU8jrTSaAGtz9KbmlNNzTAWmscCjNMY0xnQUZoxR0oEFJSmkoASig0UgCkoooAKKKTvQIWobi1guozHPEkiHswzUtJQM5O88DW0vmC2nZYn6xSfMAfY9R+teda74ZutImYSE+VnhiK9yqte2FtqEDQ3MQdSO45FZzppnZh8ZOk9dUfOckCtw2CCeDTb2wmtIfOjYOmfm2nJWu+8TeA5rGY3NqS9sTzgfdrnFie1bE6gx9B3BrnacWeupwrRvFmCXMkangOB+dPWWWNQwBIHvkVttYW15av5KDzR8wCjH4VkNay2zkEkD+6wxTjJPRmEqT3iPkn86337QWHQjtWNfskkXzLl2OFA7mtdJZLZWRTt384qDTke71t51tRcpEuHVug+nqa1pwuzKpPlg3Y3PBN+nhfVdurw+X9qAVZjyq+3sa7vxV4kh0KxDQsklzOP3K9QB/ePtXmWr39va2DQrtuI5QVSKT70R/wFZ+lXCi+tf7SMlzboQCgbnaOwz2rotG6bOSlTdV80jsfDHhyfV7g6vq254mbciv1lPqfat/xbc2WmaeLuQDzeiRr1f/6wq+/iXSF0Vr+3mQwxqAIhwwPZcVxul6dd+MNWbUNQ3CzU4IzwR/cX29TT1k+aeyJknNuU9EjBsLO98R3f2y7bybRT8qoMbvYf41bufDt1Zwy3tuUltYiSwdsOo+p612mp6dHpqGSMKloo7cBB6VwOqavLq8cscbbNPjOQpODK3r9Klyvr0FSUpysloUwPtAWSLIVzkZFTxgcBuHHqKsWcMZ09VOQ2MEHtUU0XlJy28fnWUKyb5WbYnBOEVUhqiJwzOdtMZd3lmNW3Lw/y5DfWlKn+8cd/WpZnS0kSIOSDzuBzWx56diuo25XA2noQc4pelWGaAsgVCOTyOpB7GmFFSQpLuCZxvHaky7X2EglMcgYV3Og6kGVQTzXDPEYmOGV1zgMvSrunXjW8vXioauFmnqez2F2GUc1qKc8g153pWsjC5bn611lnqKyAfNUDNqkpkcgcVJSAMYoozQTQA0uQyrjOe9OycUUuaYiOdnWJvLGX7cZxT1B2jJBPtSignFMBcUd6TPFIrAZyelUIdRRuHrRmmAYpKXNJnNABSGnCkNAhKMUUd6ACiloNADaTrTqYaYCHPpTDTyajagBhptONNNMBpNRsaeajY0DOkpaKBTJENJTjTTSAKSlpKQxKWgCg0AIaKWkoAaaQMGHBpTVXT9Pj0+J0jZm3MWJJ96ALYpaSloARlDAqwBB6g1yev+DorpHmsUAc8tCeh+ldcOaXFJxTWpdOpKDvE8NubS40yVhHEQc4ZW6iql3fxwxtJN+8iYcR453entV281q7u/E2p3Duz2jzsqIewHAI9OAKmvNCgurH7XZTm5hx+9Ugb4/qPSuZQTloe3ztRUqitfqQaV4I+22clzqDtFLOMwqhz5Q7Z9avweH/AOyrUwQDeinIkA5b1zWZpmt3Hht44blzcac5wAT80f09vavQCoZTswFdeDj1711N3Wmx5WJU4y9886uZdMOoPZ3AhNxIoDBl6jsM+tYOqeH5LPM9lukiHJjJ+Zfp60mtWCabqN7bXx3yK28Sn7zg8g/WrPhfWJbxmsZzvKjMbk8kehoaTujRwlRipwe5npKs6ISPnX7+OCw9frXrPh7UtKvNOih06RVES4MLHDL9R/WvN9csPsVxHfQrhC22ZQOPrUCxxu4kjkeCbtJGcGs5T5Eoy2Ov2axdPmTs0dX4p1ZtYuZNJtH/ANEi/wCPhwfvn+6K5WXTgGEca7UxyM4wPrRAWs8QRsd5OQR1Y1qgyNbHz0Kgf65XGNw9VPqKzcnOWmyKcI0KfL1KkyRW8ZIkxsX5kc4JHYg9DVq1S3k0uS6jV5H2kMpHCj3PrWNqN1bCOG1jn8/YxO/b27CrNjd3VzA1jbQkw5DzsBwFHPPvWdSK3NcPUmocu5JetJaCI3NqQkihlYjGRWdKIpd+wfKDlfWun1G9GpQSBlA2cotcvbohmIaQIc8AjiuijU5lZnn43CSpvmS0HRv5SbZ/nQD5XTkr9aUyqY8kZHucZpjxSRytjgZz14qKRIUkzJGdrd89K2PPuWVI8tmVslOo9sUisCA6nIPQiq7L5GfLcFJB1zUcEyQPlkO08MvY+9LlLc21ZmtBfPCeCeK63RNXaQoN+3nkVxMieU+M5BAIPqDVqwujBMDnioaBM9q0y5DIBnP1rXBzXDaDqIkRDurs7eQSRisxk+fag0Cg0AIOacKaBThTQhaThhntS0tUAgx2ppypyBmnAYozk0xDBvb7yAc+uaeBgYpaDTATFNbilo70AIp5p2MU0EbqeaAG0nNKeKKADpRnIoopiENMPUginmmUAMJFRZOeakYU09KAIz1ppNONMNMBpNRHNSGo260wOoopaSgQlFKaaaACijFFIYUUUGgBKSlpKACkpaQ0AFKKSlFADhQwLIwBwSCAfSgUtAHgUii0neOTlo2Ksv0PNPsdSFjN5kEvltnr7emO9b/jC0ksvElw5QrHK2+NscHI5/WpE0+ZLO3e806zntZV8xXVPm2nuSuDXnO8ZPyPqlJTpJ9zKew0/WyIhcLFOMvEpXILf57Vt2HiHy2+xawqWtwgyshIEcgHcHoKli8GLqswl0q1uII1+6xcMAfXnB/U1Q8Q+DNftYDLqDRT23TJlGfwB/pXVTrae8tDy61CEny82vZ7nm/jTVodY8QzTW5zCoCKfXHeuk+HXhOa7l/tO4zFAoIQHq5I/lWDqPhe504pdwRrJGDny2OSK9E8G+MdPvlMFwY7OZE+ZG+VePT0+ldKkpK8TnqqUIcqRBrdlFYafqaXZDIYSqn37friuAh3fZ0IyWC1seMfEA1zVpYrRj/Z6MMnp5pH9Kh0OOMi5ndBNJDHujhboxz+tc9b+U6cJCVKm5yK1lbpc/6T58guFYAYXO30NNvQTOxd2IYYba52k/Sr0beVK94qKrv8rWyjaNpH6VQWNjavLIP3QbGR2NQn0E4tycuhQVEiXKhd2ccjpXVeFruWeYWEKIqjIfA/MmuOluGubgRRLkL8oxW5psdzYmQeYAXGHYH9KiotNTpoy12Ow8qw0t5EyPMz988kj2rmdajtPtO6FMgjIOMGpftMKqoH76XP3m55+lOmMt4wt7oJGVPBHVRWUXys6Z0ufWRgvcxROgmY4JxuxnP1qnNPbqxCzMf9lk4/OtLUrGJ2KLwAO3P+TXPSQMJwig8/rXfTnzI8DE0PZyutizCTPMEhOW5baAegGSfyq/c6dJFBFM7rtl5XB4qxZ2sGk2bfac/aLlQG2/eSPPIHuf5fWtKB9PmJihWbyCvKzYJJ9sVXMYKBRtX+02ZtH4li3MjEdf8AZzUCtg1fudH3zGW0uYwoUFgxxtI61SmheArvKktzlelDFqdBoGomCYKznk/lXp2k3vmIvNeIwymORWHY16d4avPNhjOc8VnJDR3qnIpajhbdGDUmKgYClpKWgBRS0ClrRCENRKdrHccDPFSk8Um0HkgGmICajZyPurk1NiopCE5OcfSgBVzt5xn2pMc0gYMMg0jHAJz054oAeOT9KeOlRx5OWxgHpUopgNIpDmnUoAIoENopSKSgBDTGp5HNNIpgRMeM1CWz0qdgMc1CwxkikBGTSGg9aOtMCM0w1IelRtVDOpooo60iRpoxS4ooASilpMUgCkxS0hNAxKQ0ppKAEpCKU0UAA4p1IBS0AFKKSlpgcH8QVSK4tJWz+9QpjsSOfz5qpoPiaPSrWxmuYzI8czx4Ax+6IGR+dafxM0+W98OwSwqTJBcKcjspBBP8q0vD3gvRrjQ4JbsmcTxKU3HaYzjnBB9a5Z05c94nr0cRTWGSqrS9jbtfGWhz25eK5Vdq5KEYI9sVwXiXxS2u6tFFbRMYYjhFzyxPGcVZ17wC2kqbqxuJJLcfeDDLIPw6isjQNMaK6kunkX7QxItxkcHHL/QDP4/Ss6k6j92Rrh6OFj+9pu/qZNzALW6ntbk5aNipwc4asqfSdNmulnnjaMBSC8XBb0rptW0ODTrxhNc/aC5yvltknPOSO1Zss0EU6xtF5KZCs7AtjAwWHTr1rNNxd07HfzxqR2ucfPDFaXJE2AjBvLXkHuAcVXhjmdtz5A7KvFdNrcdlfSpcae800ijZI8uF3em0dvzqjDELb97O4G3kJ1zV8xjyX1k/kWtH0G51a52qphgBG4929hWZ4odoLwaJbAbbckfId3J68jg/Wtezv717ea4gdkEQJLAnA4rA0QArc305DzM+AGGfqacf5mZVFK6guoy20yTTI/30QMkqhkkByMVabfFgOfv8jmrvmCW3uIZiwkKboiRwD1/CuUe/cXTo5ywPJoS5tTRfurKxsgRrJ80nI5AXnmrNnNNcmR9pZVO3fisJpN8ihG68E1v2jmK3ESdFHb1qJqx00pOTLY0meVf9YjZGcCsqGzMOoFHI3KRj3z0HtzV+C6NtLvyQv171nay3795YzzIFb6EVVKTUjnx1Hnpk9i8Ump/aNTt1ukMgHleb5YI+temTa5pVnoWLHQdOtpJAUiIZJiPUkjuMj868pSOXDC6YiVVBWMLwAQCD75B61uwWN6IbeOKSHDp8rynYrZ54Y8Zz2rrtqfOvTQyJmlimaOZljySQQcA5NRzzRGFYFlaR0YtnbhcHHTvU6eF9Z1W/lgtkhvpFyW8qdCR9Bnp9KzbjSdR0rUjaXkMkMy9UkHQVasU53jykoNdx4RuTsVc9DiuFBrqvCUmLgr71MjNHsFk26AVZzVPTTm3H0q5isigBzRRwKUUAOFHtSilrVEjSKaOGxTz1oIpgA460YB60CloAgkt45DyCPocU9Ux0p9KOlAhtLRS0wG0tJ3pR0oADSUtJQAmKaRTzTTQBE1QsvzVO3FRt3oAgIptSEUwigBhqNqkNRtTA6mkNLRTEJSUtFACUlLSUgEpCaDRSASkNLQaYxMUtLRSAKSlopgGaWkooAzfEVubrw9fRAEt5RYY9Rz/Sq3g3xBYw+G7W3u7mNZV3LtPJ61tSIJI2jb7rAg/Q14pK82manLaDAkjkKtvPHH/1q5qzcZKSPSwdONenKlJ7O57VfLc6jHHaaayJaTg+dcZJKj0X3NYfiE6X4V0GaO3EQupFEau2Cx5547cZrza48T6zJbtBHdNFAOAEfauPaseS5Mm1TI0s56MxzWbqprbU6aeDcWry0XTv6s0rzxBcwrmKP73VmGTWTe3V5IVkcElhwO4qANcLcENnIOSSeKUNcTzjAzk9e1Y2PRURYYpNzPJhcdvU05Qnmh5bUMqYGSxG4Vd+yRpbj94dx6Ajg+vNQTWU11CqByEJxgHDD3pvTc5sxxP1ekpK17/h1KF/qm2yeyiXYoGCQMZz61BpNo8dmZZclFGcep/ya1rnR5LizEZQtIg+V+5HofWs6dZ9MjXajCLHzIe9OM4yVos56OKjW9+JDrJu54RPHIY0jGCqDt9a5e5jCuCrFj1JPrXeW0SX9qwjnjEbD5lkbB57VhXvh5YXcNdRjAyCZFrajUSVma14X1Rgrc/uijDkfxV0egztd2+3JBT71YN5prW4DLMkiNxlWBq1pt61lOSgGyT5SKdSKa0JoVZxlqdMUZkb5AUPes67gJiGOwrdQK2lRtkLvyf1qrJbMsAZx1OQQeoNc0XZnpStKNmci5ntZBIkh2Y27ieg9P8ACtW01S9NqscN5MIR0Xedo/CoJ4vnlhI4NZkbvZT+Uy/KTjPrXfCXMj53E0OSTsd54euNT07ULW8s/s7XGSqhl2qcjviqWo3RutTnGoXCSztLvklDZw3fB9Kk0ieBNLeUTu1zGvyRKvIJzzn0FZ8pgiEeVQv1GeSfyqktdThbKjFTI2w5TPyn2rofCsu2/wBvrWFcIscxRRgKAK0NCl8rUo+epxQxo9x0xv8ARxWgOlZOivvth9K1qyKE704daSnChAKKWikzWhIN1p1NNKDTAKKU0lAhKWiimAUUvakoAQ0UUUAFJS5pKAA9aaadTTQBFIDg4qHD55qwRTGHFAEBppp7Uw9KYDD1qNqeaYaBnUUUUUyRDSU6mmgBDSdaXrSUgCkoJopDCgUClpgJRQaTrQIWiiigYYopaSgBM1wfxE8OxTWba1CAkkA/fkD7y/3vw/lXe4pk0MdxBJDKgeORSrqehB6iplFSVma0qsqU1KJ85k/J88hKH7pXnNEOArMrbWH8RNT+KdEufDWtPp8Q82AHdCpPzFD0x6+lULIG5Lb9w2nDIeorilBo+ko1I1VoWbe3muiQrgDqx7D3Nan2OOzRQs4lbuy9P1qCFCEKoCF9q2IdEln8PXWreaqRwuI9p6nPf+Q/Go8rGtapChB1JvREDb7m0iSIAhW3cjueCPpwK3NOtQYwJohvPAI6VQ0mwzbq+5uCSaty3sssUkUMgjX7iv3J74rmqSlVlyo+UhCrj6zm9vwSLE81nb/eljQD5etYt3bafdShVlRvN5KnIxTZrCSSSO3dDknC45Yn1rSHhS8Q+exR2IzsU4I9qzVP2T502b1sPUwjTpO9zkb3TmsHZFCiMdCDmuc1UJ5Xmu5Zl+Ue9dzqttPHBJvtZUYMF/edPwrmbjRzfoFRlTa2XY9Mf4130aibUj1aXtalLVHKMuUDYO0ng4qzKP3SHpzkGtG9sJYfJguD5cCnAdslQD34rPlULbqFbKbjtJ64rsk1LVGDTi7M66xu4rnTYEYFAAAG6/WtG5UW9p5DNnuhPWsvwzakoImjeZGGflHyr7mta6tlWJleaM+WwUFHD4HvjpXHKDTujupVU0otmBqEW3Y4GGxznvWNqEW6MP0PaurvIFb90zbvlwDjHbiucuImeAoR8wNa03ZmOKgnqQ6dqXkMrMXXAwWXmun8N6zo+nv9ol05r6XzCxEjbVA9hzXG2d6tnefPEk0B+WSNhww/ofetiwS2a5VIZfLilPy5PH0z2rreqPDqU3F36HTeLdbsNbEVxaaQtlIGw0iyFt4x3461gWT7LuJvRhS6vava3McJc425UZ68mq65Ug9O4pW0Mz3Tw2++1U57V0HauG8Bah9qs1Un5l4NdwKxZQoINPFNAprOQw6YoQEtJRS1oIaaVRQaAeKYDjQKSgGgBTRRmimIKQ0UlACUtJS0AJRRRQAd6SlpKAGGo2HvT2XLA5pGoAhIqM1K1RkUARtUbU/cGJAzkdc01qYzpqKSimSGaaTS5ptIYZoNFFIBtLRiigBaKTrS0AJ3opaKYhKWkNFAwzRRRSAKDRRx36UAeQ/F+6hfV9KtI4i91EhfKD5sMRgfp+tcumipNO7rNL5kjjMaPgfiRXRasJNV8R39/CjSPIdit/cjHA57dKZOsNmPItwQwxk92NctSpzPQ+iwlDkgk9yG207N/DZRAyTMQiqp4ya7zxSLTQ/D9p4YgVmmkCyzOBwQD1P1I/Ssbwybew12xe5ZRJJKNzHsT0/Wtv4jqkV8HziSe38tT7fNn+lQo3g7bnn5xXlLlpR/q+hxcupRNAtigZIyf3kin7w9PpU6CISQqkQVjyCc4UetZtiIwxMikheAPU1qJ59xIsMq7nc7UCt0/KsIxsrHoU6EcPSUF039TY0DTY0lmvWl80n5E44HrXRcYxUNpAtrbQwqgwg/M1LNLtH+0acpRtY8etUdSbkY3iYwNpr+agYLjHtXF3bIsMZMYEWBgAYJrvbny2hdJAGDDBB7155rNxPb35hC/Kv3PQisYTi5OKPRwFSy5XuZGqyJMfJC/KRwrDgVzM8Y2H5NwB4xxmtq6dw7sxyTwuKSDT1MB81QzOpCoTgL/tH+grvoRd7GuJkuUm8OTxNCVuS02w4EeflH4V0yAyoNsCKgBwAvB56VzPhNUtXu5rhCwhIBOM7e2a6db9Jj817BCeyYBx9Sf6V6KjoefC9rlS4szI4khBG0YMZ7D2rnL6EJOSg+VufxrrXlZzu3wkLzvQnmqmoWIuoTKq/vMZIHf3+tc9XD2XNA7adfm9yp955xdWzR3LgKdp5FLbuYWwWwp7Vd1ZNt2irnzNuCF5qIWF0Uy0BI+vP5UozXKrnPVpNyaSL/AJjXMsbvISw4yfSpkBKH9M9qo2yTW6jzYm8vIKkjp7Gus0to5jHFJbGcy52KibmOP1puS6HmzpuDszc+GtzjUJYCevIFergmvGvDsg0rxssZRokkONjDBGe2K9kUhgCKzluJDwaXANIKUGkgH0UUhNaCA9KQEKMk8CmFielSL0oAWkJpc0hpiAGlpBS5pgFJS0lABRSd6WgBKKKSgAoNFBFADaYakxTDQBERTGqVqjNAELIpffj5sYzTTUpFRsKYHQ5opKKBBmkoNFAwopM0UgCgUtJQAtFFFAAaKKSgAooooAKKM0UAFUdYmMGj3cgbafKIB9zxV01zHjmd00WK2jba9zOEH0GT/hUzdotm1CHPUjE4dNRggtbiNVWNzgAZ6kU60Ma2jXsoDFn2Kev5fnWVBbx2yXDXiBz91B1H1qd0gSwgRGdS4LYHPevPPpLRWiNvQLFbzxHavMSsQbzC20kKRnbn8RUvji+lvNRjhuNQjuWg3BRHFtAJODznnpWe9xNZCKzDSDeAJjFjfgdhWRqFzEZAqBmKrtDOMMfrUwk5XeyPOjg/rFb209r6fLYkSRGgVdu1weMevrXUeGYYGR3LeZcocE5zgGuMSVwi7lyzHC+1d/4bhhstJilRP3jHcxbuwPf2ok7K7OnHvlpWXU6n7JHDEzXRKKkec9yx5ArBublUY5ILex6VBresXc0iPI4O5sNtGABislpC3O44rkqT5n7p48Y9yzcXeQcGuJ8SsXmhfeR1Bx1NbGq6nFYwlnbk9F7muR+0SanI9xKTtjIJUdk7kfTit8JR5pps6aSlH30MtLF55AQOCep6f/Xrdg0+KFdztulPU54x6U+OzZrYpG5UkfKR0qa10mUlWmnLHkMqjggnpzXvQgoqyCUnJ3kzm/sssOo3EaGRUkcFQn0zn8PStw+H5U062upYWDyEko3GRkfNn1PNdh4d8IxXt5Ht3JHGdzknO4enNeial4a0nVLeKG5tsiIbUKNjFXzpGUqsYNI8Pi0u3uDNDDtTMakKp3bSD1z+H6mr62Etqg+fzE6E9CPQ11mp+FTpV1M9nbzGFuQ33uPTj6msGXUBC5hSJJZjldrDO33xWqlfYvmUtjlr7S7WGR7tLdfMJw+P5/j/AI1WihuJ4j5O1Ys9GPWuk8tg06L85SL944HyqcjA+p54rIuBcnBjjdQf7o4968vFRUamh20ZtwsZ8kUaYiKfP35zmqMck+k6nDdJuwj7xsbkH61sHyUUNMhaU+vaoJoCT5yuB6KRWMJcrIr0faR8yTU/Ft3r2p2l5cxxrJbsAHVQGYZ/iPevZNKuhdWaMDkkA14JcRkEyYxuboK9O8EauJrSONm+ZRg10SWh4+zszvQaUU0HPNLUAPzxTTzTXfaOhP8ASqyo5lyGOf51VxEiPI0+3oo6jFW8ccUyNAv1qWrSExoX3pSKWiqENpOlONIaADtSUgpc0AFFFFABTTS0YoASilxRQA000080w0AMaozzUjCm4oAiIphFSkVGeSRTA3qQ0tJTEIabTqQikMSloAoxSAKaHBcqD8w60+jFACc5paWimAlFFJQAUUtJSAKKKSgArhfHIu7zVbGztonYRIZHcDhMnGSeg6V3deL/ABN8RXUHimTTWcrZpGjbUOMkjqfWs6sW42R2YFpVk2a4Tw1pMCteTS6lcEkNChCqD/vAniq914kurhDb2sEFlapg7IYgOOwz1NcCdVgjdFKySBxksgyAM4ya2NOv49Rm8kl43GAokXCsvIzn8K5FCcvdSPZfsl8Ur+v9WJ1un857ggscHJJ45qC4haNEZgd7ru5PY9K3dISDV9Rllt0iNlaZR/KHDyeg9T/QVl6zcy3GpzPMoWUNhkAxt9Bj6VpKlyRub06kZS5Y9ivG0i84yOPwrpdE1yMQi0uJNpBOxj0+lcFLq8MUzxFiNvG7tVY6rbtIQJw5H93NYzpSkrWM8R7KpHlb1PT9Ruo2XbuyOpNctq/iyGwXyosGQ8D2rjtR8QXkzCGB5Ni8YLelVNPsGvn33EjKWk+8TyQBzShg1Fc0zyVTvLljqaaXc19qcf2xsu8hjCueM4yP/wBXvXU6ZpZFwJIpguOXfbxj0xXOR2tvFBGIVkuZJAGj5yMgsFGeueCPyrcha+kW0sIYHeW8LRssRyVKttIGOtayX8p2wtGLTkjoY7JYiDZOskZPNuTgg/7Geo9q1LCxvNVcQ6bExkRv3gZdpT65p+j6Rp2j28Uuv3C3N3HkG0hbOGH95h39qu3HjS4dzHbvDb22Nvkxrg4+vWumGJ5Vae5zypN/wtV5/wBanXafpcWj2olvb5YJ+4Vhge3vS3njTS4D5cUU1yehKrgfma8rvtQtHZpR9rLE8hbtv65qlNqNkoytvcS/9dbpiP0xWn1iju3+BmsBUk7yVz0mb4iJakoLVFGcKHlLs30AGa5/V9Zl1mZJby3g02IdGCDz5PYDqPqfyrjI9fcRk2ccFqpyD5KYY/8AAjz+tVHuWkbcWJYnPJyc1lUxaWlNHVRy1J3lob+rTkxxQ2gEcCElUDck+p9T71nI83zmIsGH3k9fes6SaVpxuY8dcnpWgjCRT++CnGUPr7VxpybuztdNKPKloQO83m7mti7/AO0hOKhukkYbhtC+m4A/lU17cXFtb4Csoxknt+dU4/Ln2ibf5hxggcc9PrVGSVpFS4P7jYCeu4itHwzqDWOpIC2Fc4pSlnEj7oy8hGNzNgKPXH+NYttKHCyoeQfyropO6sebmFFQkprqe/WF0biNeeAAaurzXL+DtRW7sE3H5sYrqsUHni4pURU6UYyKdjI64q4iHZpajEQz1NSdqtEhRRmkpgFJS0lMBCKTFONJQAUUUUAFFFBpAJRRRQAhpppxpjEKMkgD1NADTTTTzTcUAMIphFSnpUZBoA2qQ0g4paoQlFFFIYUUmaWgAFLRRQAUUUUAJSUp60UAJRQKDQAUUUUAJmvnn4pStL49vw2MRrGo+m0H+pr6Gr50+J648fajznOw/wDjgoOnC/Gzj4ctdZ5ChenY/WtW2a4tSVnklMko2rgHpnJGe3/16yYmeO6UqxA4FdNplzFJNaFlA/hZRKXQcdeeh9qyqStsd9GKcmWX1m8+SO0jNrbQhREsK7fm+Ulie7cEZqC7jl1ki5nJefaGMg53Ed+KteVNFrAkRDJb78hS+Vxg9h7mrU0l55ccMgQAIAAgAA5PGBx0xWEq0rWudNKjFy95HM3mlQS263C7/O+6wXs3brVZLFkSSGHY9wOWUfwjviulksTtdZ5GfzCDyo4UZ49zz19hTYdHePUY7lsMu0l9oOTxjp0Hb8qFV0tcUqF2pWOLffCzps2sp5z6102nLB9mtWO5jGRIwUZyOQR/OtC60BNS2vGjtMPlyq9frTdN024tQ8MiIjxtnZ5qscfQGqqVFKOg6NJwqNN6PYvaR4dudV1VobB0VjIrxqeyZDH6YI6+5rq7nyvDukppWjagVuy5E9+U3Mc9RGf4Rnv3rLs7cWYFwt0Flni2KEbDL67hVqxWwg1K3a/leSEMC+0dB61ips0nh4Sbb1XYq21hIXeWeVhlieT8zknP9anfw5dWdyDd7okkXcgP3mBqXVLhI75LyydpLdZA0YcAtweMgUmtaxqOrzie5xHIFAC5A49Mdc1LNo8+ltjNuLRVyN6qmfXk1U+xS3D7LeMsFGSegA9STwK1Sv2iOKNxtKrg4GD+Pc1Snt2iNyiOxURnOPTr2pJNmqloctdXEOm3rxRbmR/mcnsT1x7VL5zMAY+QwyG7Vk6iWkvnAy3A6c0tlb6gz/6NFI4HJUKSPyFdfsHKKa3OP6xyScXsakjTzKAz44HStGOG2jtIwWm85QMsXAAHU4GPWqYtrj70zRwD0c81MlojHOyaf3xtX8zirjg5vd2CWIprbU0kNndtBbS6nhJeHDRlgn5datxaRfu0nkS25iQ7RLOTHkfQ/NWUjLbH/XwW3tEu9/6CtvT7a6ulUxaNNdE9Jr+UrH+C8A/rXQsNTive1OWdd7rQzP7AuL4NbR3UU8zcCK0BkP4ntVm88C6po2jPeXFokUcbDcTMCxB4Hyiu60zQ9ccoZ9Sis4RyILOEIv64B/I100mjafNbNHdmS6YqQDKxbafUDhR+ApNwirROGvX59G7nl/gm6lt7sxFTsJyPSvVEO5QfUVnWegWtoQUQZHoK1QmAAO1cz1OUQVIOlIEp2KuKYmIKWkII6UCrEDZxxRS0hpgJRRRQAGkp1JSAbS0GigApKWigBKKWg0AJ1phFPpDQAym4p1FIBhFMPWpTTCKYzTozS0mKokPejNL2pvegYtAopaQBRS0lAC0lFHegApKU0UAFFITgc0DpQAUlOpKBCV81ePpA/jrWD97FwR+QAr6Vr5r8b7V8baxnr9qag68J8TKmk6aswjMzonnMBuYZ2jPWtqLTYImKIQ4BxlRgH6VmafKDaxknJGR+taUN08TbxzjoK4Kjk5M+hpRiopouCTaywouADyaaLd7m7zGw2nHemLI0sbs5AJH40+03E4ibDE4JPpUKIpySTsXJRHJOIAB8nBPvTGilt7/mTAAGMdxVcY+1yyFsBXJJJ6Ul5dwySiVrhFXgYDc8e1XGDexm5Wsulia5kxeqx3BMAggda5jVZmtdZWeIlHb5jz71rXeq28ksZjLN5fQBe9Y9zp99qNy05iZVPQtwMfU1vSoTvqtDOdaKitdTaiu5WfzDIWY8licn860DCkjgtcg5GeBXOwW0ttF5b3sK46ANuP6ZrW0m1tLyVoppL25cDKxwoFB/Enj8jVRwcm9WaPGwtojVMwSGMtkEcRogyWHOOM+o9Kljj1GSNsWEoyON6hP06/pV2G0+xW6eXFa2KuOUlkLucHgkcZ69lqCe53MYybu7yeUjTy0P6L/KtVhILfU5ZYub2VieHS7oAfb7yzslbtLL834Lyf0pk9hpK6miC41PUi6gNHa22F/Ns/yqXR9F1Ge6iaHSLW3zyZbkNIR744Fdu3g65vXWS88QzRptA8u2Cxr+lawVKm9LHLUxLe8v6+R4/PZNY3csK2EFsUcjN4+WHPof8KniN/coUimvLlcYZbVSsY/IAYr1dPAXh+31AXQWSV8fM0pEhY+uCMCtgWVuihIoVVV6Z+Yj8+n4UOslsrmHt16njNp4d1OTDxWcUAz99zvP59P1rbtfBU9yQbqWe49s7V/IY/8AQq9NW1jDbigLf3m5NTBKh1pvYiWIkzk9K8IWtngm2ij91Az/ACz+tblppcVqoCsxPrwD+laOylxWbTe5i5N7kSxKvRQKdtp+KSjlFcbijFOpKqwhKSlpKAA0lLSUwCmmnUlIBKKXFJ3oAKDS0lACUUUUAFFFFACUtJR3oAKbTjTaAEpMUtFAxDTGp5ppoA0qXFIBS1QhDTacTSUAFKOtJSikAtFFFACUUUUAFFFFACUUUUCCkNLRQAV8y+NS0vjfWWVSR9qcZx6HFfTPevnXXpDJ4i1J/wB6CbmTlYB/ePemtTow7s2YtlIywBNjZBPQVopLcrGVS1fn+Jhj+dMUSMMAXz/QbRUsdhJKwI0+VveWX/ACl7Gne7PQ+tTSsmIk1zGrAvbx5GOXBP5AmmLcSI2VvSG/6ZJ/+qtyz8PahPjyrKzT3I3n9Sf5V0Nl4G1icDzLmSJfSGLZ/RatRpLsZSxLe8jhfsk8uWNtdyKed0h2Kfz/AMaUW/l9fsUR9N3mH9M16jbfDO2Y77ppZWPUySD/AAb+dbFv4B0iHGYEIHY7j/XH6VftIrYxeIj5s8cjidiALmc57Qw7B+ZxWlbeG7u6O6LTJ5f9uaQkf+Oj+tez23h3TrQ5igVf91Qv6gZq8LOAY/dhiO7fN/Ol7XsiHiLbI8itvBeqMf8Al2t/UJGCf5k/pWhbeAb9J1mFxcOynrvKj+h/SvUtigYAAHtRtqHUkyHiJsxIdCtY7FY47WGCXoSgBH5ADP45qaLRbdVAcu/tnaPyXArVwKOKzab3Zk5N7lWKygh4jiVfoKnCU/FHSjlQrjdtLilop2AKSjNFMQZpM0UUgDNJRRTASkNLRSGJSUtFAhKSlooGJSUtFACUUtJQAUlLSUAJRS0UAJRQaBQAdqQ0p60lACUGlpKBiUlLQKAEppFPNNIoEaFLSUhpgB5NApaKAAUtFGKACiiigBDRRiloAbRS0lAgopaSgAooNJQAVmt4f0iR2Z9NtmZjkkxjk1p0YoGZi+H9HX7umWo/7ZCrEem2MR/dWVun+7EB/SrdGKAuCqFGFUAewpaKKBBS0UUAFFJmigAozRSUAFFFFABRSGigAzRRSZoAWkoooAKSlFJQAUUUUAJRRRQAlFLRQMSiiigBKSlopAJSU6jFACYpKdSUAJRS0UwG4pKdSYoAQ0lOxRQMSkp1JQA2gClxzRQA00hpxppoEXs0CkpfemMWlpKKQhaKM0ZoAKKDSUALRSZozQAGiijNABRRiigAoxRRQAUUUlAC0UlFAC0UmaKBC0UmaKAFpM0UZoAKSjNFABRmkzS0AFFJmigAooooGFJS0lAgpaSimAUUtJSGFFFFACUUUUAFFFFADWZUALMFyQBk9TS0EZooASilpKACiiigBKKKKAEopc0lAAaSlzRQAlJS0UAJSUppM0AJSGncUlAz/9k=;" vertex="1" parent="1">
          <mxGeometry x="76" y="1050" width="146.67" height="110" as="geometry" />
        </mxCell>
        <mxCell id="USX80gVfWroeQub0HQB3-151" style="edgeStyle=orthogonalEdgeStyle;rounded=0;orthogonalLoop=1;jettySize=auto;html=1;entryX=0;entryY=0.75;entryDx=0;entryDy=0;" edge="1" parent="1" source="USX80gVfWroeQub0HQB3-148" target="USX80gVfWroeQub0HQB3-125">
          <mxGeometry relative="1" as="geometry" />
        </mxCell>
        <mxCell id="USX80gVfWroeQub0HQB3-148" value="" style="shape=image;verticalLabelPosition=bottom;labelBackgroundColor=default;verticalAlign=top;aspect=fixed;imageAspect=0;image=data:image/jpeg,/9j/4AAQSkZJRgABAQAAAQABAAD/2wBDAAgGBgcGBQgHBwcJCQgKDBQNDAsLDBkSEw8UHRofHh0aHBwgJC4nICIsIxwcKDcpLDAxNDQ0Hyc5PTgyPC4zNDL/2wBDAQkJCQwLDBgNDRgyIRwhMjIyMjIyMjIyMjIyMjIyMjIyMjIyMjIyMjIyMjIyMjIyMjIyMjIyMjIyMjIyMjIyMjL/wAARCAGAAgADASIAAhEBAxEB/8QAHwAAAQUBAQEBAQEAAAAAAAAAAAECAwQFBgcICQoL/8QAtRAAAgEDAwIEAwUFBAQAAAF9AQIDAAQRBRIhMUEGE1FhByJxFDKBkaEII0KxwRVS0fAkM2JyggkKFhcYGRolJicoKSo0NTY3ODk6Q0RFRkdISUpTVFVWV1hZWmNkZWZnaGlqc3R1dnd4eXqDhIWGh4iJipKTlJWWl5iZmqKjpKWmp6ipqrKztLW2t7i5usLDxMXGx8jJytLT1NXW19jZ2uHi4+Tl5ufo6erx8vP09fb3+Pn6/8QAHwEAAwEBAQEBAQEBAQAAAAAAAAECAwQFBgcICQoL/8QAtREAAgECBAQDBAcFBAQAAQJ3AAECAxEEBSExBhJBUQdhcRMiMoEIFEKRobHBCSMzUvAVYnLRChYkNOEl8RcYGRomJygpKjU2Nzg5OkNERUZHSElKU1RVVldYWVpjZGVmZ2hpanN0dXZ3eHl6goOEhYaHiImKkpOUlZaXmJmaoqOkpaanqKmqsrO0tba3uLm6wsPExcbHyMnK0tPU1dbX2Nna4uPk5ebn6Onq8vP09fb3+Pn6/9oADAMBAAIRAxEAPwCpoumaTb3gdNQF/fKpwzyByo9gOldGkasw3HmsLw7d299bSz2unLaoG2gqoG79BW3ZzecXMsDRFGwNxzu968qpe+p6MLW0LZGFG0U+NXLjI+Xt604vwOMU8KcZ5wazNLCTIC33SMLnrVI9fWrEhIR85x0qqJFBK4z70xkufloALNjPT1pEU/e7dqeqlsnBwKAGE4NKANme9ObZgnoaaAODimAqjIyelAI3E549aXcCMdKado65+tACbSSSWpSMj2FNz83ymnqM5HY0AMBLE5HApFB3dPzpxfHy4xTowSeQSe2KBEmwAfeBPoKTzAM5AprKV5GMVGQMc9aYhzSKxBAx9KWJmbODj2oRQD0ye9SHO8gAL9KAIwzq2SOaeWLKcDJpuWUEEfiaUbm+4elAAwK43qRSM5Y8EYp7Mx+WSocEHIP50CHK5GQRxThyRkdabnaozT2BYhsbaAFQIrEsCT2FIVyeRTthHPWnbgei4+tAFdGUE7Rg9Kk2lv8AGmyDacgAUuGCLyefSgBy7ARxz79KR8Zz1/DrSnCnH60j53DBGPWgBA4OMZA96cUGC1NQb257U5STJ2HsaAHQlhjIO3vUrbGz3P0phYg8YNIWZjwADQBLvVV3BflHGDSNMCxKKBmmhWbI2jpmhUBGcdPegCR8bTn/APXURwrpjOakYbMbjxjNNDKyk8g9qAJGVTvcDbxuphcMPm+bPShPmCl88Hn6Gm7AkpXIb3HOKAEMag5OBUgjBJ2k0iRszcqfYVahtXBJb5R/OgCCGJfM7be1TsgAJU/WnvCsXLSKAeg70GRcbVhZux7UAVsM/fmlSJg/PT1qx5Em3CbF7kk5NSpBuARmLY/CkMrTbUUbjUcaoG3BSa1zaxoownPfPNMa1GMtgH2oC5S8tyCAqqPU801LXzDiRycdhxmrmwYx+tG3a2AKAIlsocgrHgjvTzGV44wKmAYxkAcimH3NAXIsZIIyB3qwhwCFHNNUjOMZFKzhRx1oASR2CEMDz6VQOFG73q0Lg4GeTVGYlgducZoYD8vI2MYWpOgqGIllO5u9IZGYMFHToakZMq5zg8028KxzKePmUNxSW6kxncTuqW6iBgjlYfMpKE+3Uf1oEVYwS+4dPenuzcjH51HHIoJ7UrSAkBulIoxYiFUKMBR2FWV28DtUSQnOeK0YIAACcZxVNkojZwTwpx71IGPBJwB2pDCMEhwDnpUqx7hg8VJRBKQ8fy55aqwiAODzViU7Vwc8mmqisMgnNUgG9vajLA8nihhgkgA/WkGQOQSPamAkm0NnvSbmPGOKUgOx6inYwOnQUwGgjPXB9KCm5C2RimhfnPAI+tPABHoKBDEQ4PpmptwjHBy3pUTN8hxnFNQY5JoAlCBvvcfWpUIjI2kZqBVBcZORS4KtzQIc/XJqMnOOmak257cU0osb5POaAA4VAS4zSRbjyScUoCEnsB+tOLBcADigBdpc98fWpA2HxULSMI+uB6UwMXYc80CLDFS+M4z3pgIXtux0wKQL8pYjLetClskKeaABV43MM0Fi2eufSkLFcg0qRsO/U/lQA/c23k04Ash52/XvTcFRyc5puHB4ySPagB6QFmB6D1p+d/A60zGWA3H3FG0qpIbj0oAVlC/M2CTwDTATg7cAfSl3HaBjPtSbuBjpQA0Lin4B6cYp0e0nJwPTNKULcbgMdTQAzcMkZIAp3mHgAdetMbbyA2akhUNjnA7+9ADkYtnOM03noTgmpvLVQQvOfSni0kKKREWye9AiDnJBwfemSAgZGBWjFpkjANIwX2HNWhptur7ZGL8UDMSB/wB5sJ4bjn3qf7hG7ll4IHetZrW1K7BAmegYjpSzhUENwsILbeTnHPtQFylEJ2PCiI45z1qT7OzsS0zs3pnFT/bAefIKse55qTfKyqdmCfagQ2O2XB+QfXvQIFODkCpBHKXAYnHtQyeW2M9KAHpbL94HmnKqoeACaasjYPp3qBm6saALckg7VGzqQcdqgHzDI5pAm05NAx4BJyeAKaA5k9qRpMHOPoKazuMDaQD6UASKuCRk0xhyRjihfMbJC/nShsnBagCItt4GfpTTuKltvJ7DtUu9BnC8+tDk7QRxQBB5RI+UYzVaUeWzKzYyM81ZLkdTx6VXvQqqrkZJ4zSGNRozHgMcCk86GJ8KhxjkmqolYjAQU5QQvPWkBdiYMNwOAO1PkDS2kwzjGGx9D/8AXrP34IBPzHjirliS8phPR0Zf0qhFRVAPrUwOFywNNZCjYB5+lMfcTt8w/nUMpFSFSRyRVsNtQHkAelNgCRxn5Cc1KFLKcDAxzmkCI15ORzU/mFUyRwBVSEyu75UIgb5Wzyfw7VZkJWLLHcTwKBlW6cMVAz05qFSR3NEpLSZPbtSqQBnODVgHzChmbgZ4oL/LjGTSA9AKAELY65JpST5ZOeKkEYwC3NNfhCoGRmmIjBOOlLknoKcuVyBjFKcJjHQ0CGAYzuNBYbcKDnHJpXbI6fjUQDZzvx7UAAm4BHapFeRyMmoUiAbLHvUuBydxBPpQBOzDYNucnqaY7Bcf3jTDsUKA/SgjcwIoAQMc4wRT0wzZbJA7U8bCuCM+9GwgYAAoAGRGU7eD9elEQjzg8e9N24BGf/r0m0hRyB7mgRK/AwufwpuTg/Lg+tSIzJlgRg8VJhSme9AFQqSMkHPrU8f3Tvf8KGQk7BmkMYcY7+maAHB1C4PUdKUyorgHnAphgKJnFSGIMo+6OeTQBHvzyqj3pzNgDOADTljO/aOnqKmGnyznA59c8YoApbd5wvJNTC3fy92PqK07bSWAG9gp74FWRYwxLiV92e9AGD5MhHAOPzqRbWYkDy2OfWugVIgB5cZI6ZxSANI2ANo75oC5jLpcrY3siA9RVyPT7dMAsGI6VoiyyCXfPpUi20aYAXmgVyqFgiUBIycd8VOGkZQFQAY7090ymOBijcqp8zDNAiEo7H5mIFOittw3lj9DSSXK7SFXPuahN25XHQe1Ayy4UZ7Go2ZZYwATtVuSKpNKzcsfxqSGQENHtJyO1MDQHzJ1yRTXBHXrmo4nKglRyQM0reZIc9xQIkSbAO7qO1QyMpYsB+ApPIZcsT16imHI4ApDHKxCkAZpoQ55XHtT4XwpyBkVHLIdxOR9RQA5YSoyemaa8YJHIpFcufmOfrQ0irj5QaAHvtGGKjIpryLwdv0pJWG3cq1XDbz14FAyws+Qc/lTWZMHrn2qtIQCAWFN+6eD9T60ATbokySzU1ZkPVgV64pn3h8wzkUwxgt8gGMcmmA55Iy2A34AVDOUMLsxyBzSi2DEncemDStECjKV+XHrQBneei9aRrgF/lyeMAVKEgLYxn8KmEcQJbAH1HSpGQw7mcZAGe9TwEw3sTKMhWBNMaQpGQuOe9VxKUwB1zTEW5owk8iljwxA7d6cVWOLdjccZqW/WX7WzeWhDqG3bh3Gaptc/OB50H/fwVLQ0x4yqAelBJxgd6Azg89O1I53DpgCoKBdy4BouMtGABnB7U0v0pHl3KAx2qKpAVXAzwee9MCsuS3Sn7hnIHFAXLZyTTABzSjoQBTihK8cUwA5460wFDfKOcH0peAo9frSiIblJPWpWxycY9KYiADHIocLtGCd2e9KVY5OOO9NcccYzSATaMd6TGcY496VVyp5OTSgMQeM49KAG+WQRlhjrTyR1C4pACzeg6YHephDhfmGe4GaBEPBJZRinKuUOFJ96kC7Tg8UEumdtAEYBAw1SREMWye3FNUOz8jrUiRnzAFxjuaAI2jGcAZz700wgIOcnvitMWoMfzH6Y71JFZEgKVx7kUxGZtY8Y7VIquy9PxNai6Zhss4APb0qY2sCuuZDj0pAZEcbbiOp9anSFy5AXt1xWyVgiTEak++OtCu2CAgUUwM1NLdwSWx36VMumxFSGlHHYc1a+zyuuGJI9zTjbeWuFGWxzQIhjhgjI2rkgYqdWIB2IF+nenxw4j+Yc+tKpTo5GfamFyPy5JTlpCB6UgtvmAZSRnqTUhlDjKCmSTvwOlAE4VVJBOPQUi7OhI/CqagySbmbgU4zANx+BoEW3uNqEBckdKg82QoOcHvUAn+c7hmleYYyDgdhQA8ZP334+tG5du0EZ7VUDlpGRaRTknJ5oAmwA3bFN+91AFNGVGBzTf3hY4GB2pADoC2AcfWmBkS4RVzncB+fFIyyDJz25zTJGxGXHJ60DNKKXa5jIx2qSSTao29T+lU5WJcSgYDAMMCp0DTLkgAU0Id5hZcY5pu7axLn8BTioUcnNRyYXr+ooAR5Rg8YqEguuCSOe1O3AryOfWmOC3QkCkMVAqnO7P40rOC2APwqJEWM5yWPfNSZyQQfyoAfyy47VGi7OPX9KeHAVuMD1pjZ2jBBzQMJEXPODUQZE5POPapMHDMe9NZAqZyKAFV1IyRRyORjFGzC5YjnrSZJGV6CmMN5x8uTmmsc9etPIYDcSBihI1kcZPFIDLmYI7EcEHtTDcOxycAYxzUt7sSYjac9cAVTMhIJKj/CpYyz5qsuACTSY3Hpg+9QxZ388D6VY4VskmmhE11AjNbs6IcxBS2BzjIpCkar8oXj0FK7FrEFvvRS4H0I/wDrVFG4J55oYIlQEtub8M1JIu5QCQKjVgOO3vSyMUAwM5rMsaEwwABIqKdTvwFAAHenpI27rUFw2d5yc5xiqQhiplsdqlGEXHAqBTxjNS8Kp4yTTADluQePaowCGOOKdwFyKQtux2FMBrSOXAB4FSAZbJ6UzAZuG4HbFOwSeBgUXEIWk+6Dge3ekUZ4xUgBzxSjcflQY96QDOBnmpAmBjOAeTUsVqrYJbPHOKk+zsRhUOM0CKyptbjk/SlZXLjnH41et7OQsGcbR71a+yQAZfvQBnx2obqxPHQd6etozOAVbbWoCqAKgyB2ApNkruTtAUetMCt9hJAUMAPzNEdlEhJZiQPWrZgfnc2B7U9bZcFMbvc0CIVK5AQcY6Uqec7EKmMepq35YVMKFWms44VT9cCgRE8GeC5JPPFSJaKNueT3zS8Ic46VIGduQwX6imK4pi/djjGKiV40JZs5NSMwYkMwqIFM8fjQBK0y4JUDPqaj8+RlI3AE+gqN2VQDn601WDscH8KYEyhiMls/Wop5FULj8acqunA71FKuHIPNADtx2hwoAHTPeoy+4DPHfimNKdoUfrSKZSx5wuOOOtAD95AOO5pAckqPxpCgChm/OnIUUE85zSGRgc4FDFwMY5p0jttGzGM1DvcklickdAKBCrjJP8Xeno6heQNw/WoBnIznJ6VKz4jwACcYoAeZW2nYopBIWGMdO9Rh28sYX2oAZSw7Y7dqAHsGZDknHf6VCwDLgdOuBTi+PkYk+uaASrAFhzQMdE5a0h3fwEofw6fpirqTMFA4GO1Z9q37q4BOSrbhn/PtUsMxcHC96EItmQk5PQe1RvKCDwTTVDHO7OKflFB3L+XegCDIyCB1p2C54OKczAkbRg+lJ8x6HB9aAIRHtc5yd1S7tq46ntQw8ojIyxHU0zjtkCgY5WDKVbr1pjcgbexzT1wSQM47Gl2hU4H50ARlcjJemcg4zkU5Ryc09htUcDmgZGoJYk8g9Kd93gHP9KQMu0ZbBzil46DFMBvzEYPIp3l5GVJFMLMW2oR9RUg4I5ye/NIZn3sbLIjE9Rjiqew7mwpx/WtS92CMuRk5HFUJZyxIRD71LAZGWAx+FS+Vxuc9KiRirE5P5VJJMNmME5FNAWYfnsruFQN20Sfkf8DVVeACPxpdMfdehSMCRWQnPqKQucrgdPShgh3IPI59qWQueo4qUlc+9RbycA8471CKJVjwm4VRkJwc9dx5q+rHZnGMVCyhIVyPmbqaYFWPIOcZFSZ6bh24qWKML8xPapFQscqpx2yKYioQwAx0NAjZxwcD3q/9mlLEBBjuSami08AHc34CgChFAO5568VN5QdcKpz04FaEUEUWQOakUAv90DmgDPisJWALYAFWVtIo2Jc9e1WiWXkkURxqRlhkHpQIYscMZwseSfSnbWLDCgZ9asFAoG3gU5NpGTTEVEjdpMM3yg9qtvbwYBA5oLonKoOnWhnLRnJIz0oEOUIq8qAM9aa8kanJYnPtULOMLknPTFARS/P86YDxMNwAXPuakeZkkC5wDzVdnCN8uc5xx2qRm3gDOW6ZoAQsWO4ngUnmKBgjnsaRgFBzn1zUavyDjJoAlf5sDJxjrSgMQAM44pivz0PWpBKNx688fSgQ2RjjGeRTCxxgk0x2JlyeKfjaoFAES85BBznipEG3qME96Qnac9zTSdwGTzQBIxBI+ZgRRgKQeSaj2nnnkU0sEB4O4elAD/MwuQvsaVJG2sHG30FMjD+h5NDqfoe5oAezgx/MDio2kRVA4OaYFO3BJI60ix5znt0oGSgrjBGT1pGJPTjHTFNf5WAA4x1zTFckHcehoEDHHI60xnwrZFPkdRgYqDG5yDjBHagCZHHl+ufWnB+Rke1Mi4XAwSB1NOdXkTng9c9MUALtUksTz25ppiBcseSRxTVHGHPvUoaMrzjPbmgZXt18q9ZT/Gh6n/PvU0YKTFMHGahnlENxAwPRxkj0/wAmrThkuefzoAtNESBzTXACqTzUSyeYCQc0mSuNwGKYhW25Hb3xQc9QeKjmcE5XNCq7KPmHPakMf1BJAP40YGQoPNNkTZ36UsKY+YkE0AHzLwBnnk+lPZQVzj8KjeVQ2F5OfypQTuznigBVTKDI+tL5XmH5ug6GkOTyAcU5gyQ8cZoAiliUEHqRzgVCFPOAfxqR3I5zketPyMcUDGqpXpR5eAST+FDFsDHGTxS8lcNQBDdNG8DofvAZwKzASjArx3rVlVPLPGSRjislsDC45qWMYTknB4NKBk4NJnaCCP0pVQscfrTQEluClwjDnac9cVM42SPHjJBPSoFUR4JbHripri5SC4SQlQJIw2SQM8c/yosBOEDHaBz6VILUg5Cn8avbFQk7eaVJDvy3HpWZRTaCbyXIXgDvTTYSNGhkfHHTFbm4S2siYxlTg1UkG2yti2SfmGT9apEtlSKzjC45Y+9P8grwMAdqsx9M4o2hskNmmFyNY1UcnPOcUoOCQq/jSOCjYHNIshZuaAFOB65prOARng1A8hzgkD2p6bWwV59eadgLCOgU8Fj23VKjYfngEdqp7juAXv3qQuc4bJHegRM7o5wuT65ppcL0PsBUAkxzjbTZL+ztHj+1TwxGQ4QSOFLH2zTEW1II+YfTFGQGLE4pryqX+XAA9KhMoaQrgkHrzQBcZFVM4B96jwCvIORUXmMMDNTKybRk5NADFRt5JGVAzzSD75dTTpcbSR09KbCuThjj1oAeXQAhuvamtt6ADNR3Maht2QQDx71G2R3/ACoAlj68jkdKe+MdRz6UyFBtOcU5ow3APPtQIjCMDk8+5NPBwDmpkjcqCfu+tRzqAo9fagCByGOTxTVUFmJ5wKeF4OBzSEEHj8aAFRRkMP8A9dGNq7iOaiVSHPJxTuVJ5PPFIByy5PXp6mkLjJIznPNNeMEfOCDnBoRsYQCmA7Pcg5NM44wec1IWA+8QKjI2tktkZoAcTlNu3n1qFl+7xx3xUm8HJ7UfwjHTpzSAZsAGTj8aidgFG3j8KmeLd1OfSjIC4ABx6UANgYAY2hcjPWkkkfOCuF7YpcA42r+NMzIzfM2ADjpQMTyjkMD7mnOEVdpwMccc0hUiXaT8o6GlPlk55J9u1MCrdHdECvYYyKszyl7eNw3DqDk0koUxsFGOPSmQIDpqkjJjYrk+nWgC3bKGVQSQo71O3lgllOcHiqll+8iCljwSauIoGAWBHpTEQ53MB78Uxz8+33q26xq4wefpUSphicfpSGRhGcAvx6Zp0a84BGKc284zkD1oyqnGaAG+Vt3MB+NOdl2gBecdaBnGRyDweaQ5BA45pABYBdueaF64Lj8aj6Nlj0p6Y3/Njk9RTAadm4grkU3eQ3C/LUsgBPy9qgdgpAJ5PpQMa0hyDwaN2fmOMdOvSoyDzyMdqPs8kgJAJ4zgDrQAjMDwhz6YqhMSJTgc5rUjhKISOCw4BGKz542WdifrmgEyNh0JHI7etOVDkFhjNQ4d8sWFShl4AkJI9TSGLKqE7OPzrl/Fvg+68RSadcW1xFGIonhk8zPZtwwB/vGulYBpC2cGrMZ/4l84A+66t+eRVwbi7oicVJWZvFQAAcVEyrgkDJHapJAow2QcdqbweRxWKRpcfDcSFcKAPp1qqFkK3MG85VhKgJ7HrWlajg5H6VUugbfUYpCfllHl/wBaoRRtpc7izZP1q15vlkfN1rMeIw3Mihv4ulWvMUJgYJ7+1MCw82eQMmoiGOcEfjTASx4+6R3qJxtJyxI+tAh7oQRnrUVxd2tnEz3E8UIA5LuFH61wPxD1LVdPurX7NfTQ200ZyqHb8wPqOehFZth4A1DVI0u77U41WUBlPMjMD7mto01y80mZOo78sUdld+PvD9iuBdNcOP4YELfrwP1rAv8A4quxI0/TlHHDTvn9B/jWrY/DnQ7YgzCa7b/po+B+QxR4r0PTLbwrdxW1tbW0gAkTACklecep4zVR9le1rkv2lr7HVaNfLqekWt78v7+JWIHY9x+ea57xpNBbSW8xaSOeOJxG32bzUYNgEc8KeAcmq3w0vvtHhx7Zn+e1lIA/2TyP61DrXxHOlajc2B0ou8TbdzTYyPXGKlQfO0inNOCbOk8O3CTaHaeW6SeXGI2Mb7xkcYJ9a1t6KQCDuNeWt8T71UxBpNvGo55Zj/hXf+GNUXX9Dg1BkCO+VdAeFYHBpTpyjqxwnGWiNdGCsSQTxipl2u47GmKMAgD8qcF9chs8VmWJI6hipHSmM+TuAIWpZBnBb6imPlxs5IoAZvCjjkUI28E7elSIgfcPwFKGWMYYcnqBQBGzcjjApwbcOOp44pCynCk/hQ42D5TjuOKBD1ldV2sT171GWLPnIOKiaZcDgls0KwPTPPSgCdnVZcHuM0xpBjjoKiJ3NjHPWkwRwWoAeCrPlulIZQR2xTRhXznJPODTZJQW+noKAJvM38EHHWomO1sKOPWnZGc5yRTHl+YYOB/OgBjSEIVYfjQHAXkk4phjcsSx4757UvybQckE8ZFACrISe9TI2SVJA71Dnbwo5HWmruLjOdv9aAJy+3Ksc56GoJJcH5eOOgFPKJnLMevSlMaYyoOc898UAQrKWG1ePepV8xm45FKiBSQvU9akJIG0Ng9DSARoM4yTn19KSKNVG0nOTUgKhPnz04ye9NdlCg7selAEMyNuIB9hio7BT/pMLj/bHv2/wqfzQThV5HfNVtxXUEK4UOCvX1//AFUxlu1UJ8m7BHarYVVOM9uTWS3mRzElsk8GrkMmUxkk0xFhiruCM01pAhOD1609mCRkjPPY1WZC5JHc8Uhjy7YB7U0je2d2aGwVGSeKYJQpIXAoAd5mGPbFHnKTkUA70Pp3qN45AAFXg+nekBKWD5yTx7UqMm3GePWo4kdkO8Ec+tKRGvBIGaAByoHBOT0qHbyQevapjGrNnd9KQKu7OOn5UxjQAXBJ+UDFTwyFcMrfdPGaict2HFMI3jbk4PUCgC/NLDJCGdgHHcd6yLyUEDYMkHkmpGhKYUkgVHOAsBCxhjnnNAkZzKwB5/KmiIkjOfpSncTk8d8CpEBI3nIx0pFCuVXtzUU8K3mlXVvI00UT7GkkiyGQA5zkf55qVwXIIPFW9OdS0kDr8sgKMc4AFUnZ3E1dGwSmzJJpFwWAAz6VDuaU+gz2pQjI27ByKzKNKKVtv3MEcc1R1cSeSJsn5GDfSp4ZmbAwPxqxPb/ardo3PysMHFUI57UMmZLmM/K4wR70yFmfPH096cY3ksDGwJeElfypLaRNoVutAExlPCkfiKgldgQOgFWSg45HXio5U3/K460COS+IVot34XE6KS1tIrE+x4P8xWNpHjSa18PWluFtlaFfL8yVsk46fLx2x612erzacLGXTriT57pDGsY+ZstwDgc4z3rzLwnAr3l3azeYsiDOI1XdwcH5iRgfnXTTs4WfQ56l1O66mxP4k1W7H+uuiG/55L5SH/gR2n+dUPLu5ptpWJHbrljJIf8A0EH9a3Xm0e0cpNc2vmdCpka4c/8AAIwF/Mmo219IR5dnaXjDoBlLRfyX5z+dUtNkS1fdlH4dzyad4lvtNclXliYKHBHzr0yPpmsSW81rT9Vh1W+Mw86csd3Ak2sAwx6dqeb6Sy8Y2upOkUQMqsyxsxAHRsluc4r0vxd4cXxFpsMccywyQOXWQrlSpHIqpSUZXfUSTlGy6HKyW+u3WpXtteTq2lTpIsbPIiqARlDjr1xV/wCF1xLDHf6dcKQ0bCVVJ7Hg/wAh+dc6PCWiIu658W2an0RNx/nXTeB9I0Sz1iaTTtda9lEOGjEW0bSRz79KmduRr9BwvzL/ADPQo2+fBPFPZgWyT1NQNgt2A9KTblcjt2rlOkslV8ssT+FNJJAwD9RUSndHnjrzQpwvJGT2oESbVi+bdiopJA3YlhSF+zgA560PIi8rz6mgBiABsnr3pHDvzzgHj3pykMAeCe+KcrMOoOO1AAm3aajyWc+lKSVPHSo2mCkgjPtQA53VVBU5PrShy/PANMYgDAUfQ1F5bySArn3oAm65J7d6hwWbO0sO1PRGMhJIApzEIpO7J9qACFWAyT+BqOVcyHnjtSsxH3FA+tIxGAWA4oATLZ3ckelNebjaAdxNOW4TcFYAAd/WopJ4VdiBn0BoGOy38QI4p4kBQdc+lVJLhmGVTrSCRieOPagC+MqQcDFOeVETI5PcCqSyug5Jx6VJvTyyzckdaBC+e28fLgHpmgySgFiRjNRSTq4AVQCBUDltu0HvmgCUMSSSfpzTlbnr05xTUiTYGJ57+1SFkXockdaAHeaMjavU81WunfKOBnY4bOfepAxKfKgNMlObd42jIJ9DSGW5FZJQ4OefWp4kUMGXCMe4qmziS0hkUgfJyPcVJBOnBJ6VSEaaFSDuBJHrTkI2bVA57VVhmdyCvQnpVhoGwTEwyP4SaQFeWLbJ1PvzUbLGFJPI9aWV3jH7xQvrTA6yMoV1AHUetAwWTeu1VwPWhWKMQXOe1KSoQYU9ae33SSBSAk+ZlG70qBo8tnIFOjckHA6UuQc5P4mmAmwe5/rS7QAOo9iaYzYyMdaXehQZHIPQ0DHsQUAUY49aiXCtknB9M0o6EA4FMbAYZPIoAWeQDJBLcVTlmJgbC/MRj6VbJVhzz7VXZQpYYzQBmIG3AnNWFRtp4z6c1BJlWIPHtT4vl+UknNSxkgU5KtUkbGNtijr3NGwqm/nj+I9BVb7QYjHJGSW3c1aiyXI6URoh4J4p3nfLggZ9c1XaXBHel8wMOFPFZllxZFYAYAPqKnR2xtz+NUIpF5DZBHarEbkvw34UxFVo/J1CaEkMkq7gP51nxokcxQr3xWvqaBUhuMAvGeT7HisS7Y/aN3TPPWmIsB2iJBIxngmnCXeRnBqEfvAG5GR0NCRbWJLcUwI769tbALNICQ7BF2JlieTj9K8j1aK2Xxi0jKqWd0/mAy8KA3UnGejA+vSvWtTs2utPlgjMfmMPlLgEZz+Nec+OdKuLGCxvJZQ7BjH8pJ2DqoyeT3reg1e3cwrJ2uSwzaXbowja6uU/6dbcRR/iz8fpVcaxGZClnp1pu7By904+ij5au2dlazW0N5/Z8LCRA3n6hOXBJ74Yj+Rq1NfR2kZWTUxFHj/V2kYjX8G+QfzrTqZnOeI7XV57GO71CKZIo22p5qJEAD/dQc9uteoeFbw6p4Xs58biYgj57svB/lXnOoXtheWU8dtaTTO6keczFsH1OAF/U10Hws1T/iX3tiz8xSCRVPcN1/UfrSqK8PQdN2nbuZ3inw/4XsYbi3ttQEGqKwO2ZmI55I4HHBpnhr7Hb+MtOfR23wTW/l3CqT8r4+bG7kjOK0vHXh+7vdaivrSK0CTosZM7qp3g4A56nGKyvCca2fiW3sr2LTbkPko8BVmicc5yPpTTvT3uK1p7HqySICd3I708OoAwNoPrUO4LnIyfalcnjA4x3rkOokV1jPzYpgfMoORjHamj5UKnnjFPXYqgDAwOtACN8znGcYpVjYj5SNvfNEkisRg4xxQ0gAxigBihhnPBJ6CpCcKAfqaR2DEbOAB29abtcvgsaBCzjGOc5pHEZwRzjGcim71B5YHBqCW4CthQW7YoAmYkkuAMZ709G2ozVTe5lZcBQoqF5JGG4MeeOtAF55lwM4B71A8yIcYPNVFOHyzU9mVjkZFAE/nsXLDG3pioGLSMSWwvTJpxVthzgDNRvgAbcn2oAVFXHXOD60SJ1POaRNpGWOc0jSHcQBkDpQAmNgBBAI9anT5x1Xn0qk7lhycHPWnjIIYZxQBaaIg7S3PrTdgA+X07+tNU7jkklanMivH0wBzQBFtPJ+XNM27n465wTSs3z4AIz0pyxM6kbsADJ+lAEgjCLyd30phwvL49cUrHICjsOKhLMwPBPPWgC0JOmxOAOeKY67gxI6jFNRmU5Oc4oabI2nO7P5UAMsiXtZohyY3J/A0kL7cjGT/Kls28q+liIwXQnjuR/wDrpU/d3DbgCM85poRowPsx9O9T7pJD1PPoKqeYWAZEHHc+tTQzTPwQBj0oAWZT5e2XG3vk1AsNrJuEQZSPbippoyjfOQSRzzTIyqrgZpFEhnZGCtCWRR98Hn8qjlm3jMeGX1AokmJUDBx6mmbRCN4B9wBwaACNiPmBx60O+SGzgDt600CJwV3+WxPIJ4pkzxQ8GYPkdFHFAEolwexNRtId+ABnH5VUNym47dxPvTGlk3FlOB6gUAXGLAEqxJ70wyDOSRmqRaSRSQSfaoZGWIATzRwj1lcLj86YNmkJwCRuAI9Kge6Vdwz7ZIrGn13TbaQp9q89gcYgUv8Ar0qlcazJdYFpZyKecmZgPpwKfKLmR0aafPqJzANwU/O+eFFTmTTrEERzpI8Zw+Wxj6cYP51ykNxqtxG1nJfNFA4G6KAbd3sT1IrQg0XSYAHmVpCOf37Y5/GrXKiG2y3c6jZNgpIsmP4BJuP5Ckgla6WNfJVFbhSCc/jU1rdQQ/LYW2/nH7qMt+tadsurT7t1msak8eawHH0HNVzeQreZOxDNwcjNSr8rHHGelRiFkjEhA2k4HPelVjtwfWuU6BSMscZGRyakhXaQQ5z3zUQJAOe/SpElVUwckmmIuSOktu8ZQsWUisa4O+CMnqvHStVJAGwORVCVCxmUEgA7gvbmmIp79rAYOKmZvk6c/wA6qK+cHr61Mr8jkUwJPNB42niuC8RRT3lvqNvPeNcOuTGgTAVlAbGM/wB0HkDvXoSKBztBOO3euR8RbrTU47l7zyIZAA0KIMvjORngYI9T+FaU3ZkVFdHB6JFc3tuVSREjjO0tJcrCo74OBuP51pf2fZRSAy3ytIf4LO2y34PJz+VZlgx0nW7y0aCCTBKj7QWCjB4OF68etaJ1S4bKRXwjHeLT4Qv/AI8oY/qK6pXvockbW1NBLCEr5v8AZDuo/wCW+pzkgfgSo/nVHwfc/wBmeOTbo8LJPuizE2U55GD+GKrx2sl3LmKxknk/vzsXb8V+Y/oKq6tb3ui6jZXs0aRSBg6qgxjaQemc/nikldOI27NM9K8dadPe6HDcRosktpMs21m2gjoeePavOLKKS3nOotHbQ3Ed5HKubgDCkksAN3Tp+deuSrBrGlPFM5a3uYucf3SM5FeWTv4GhaREj1WUjKh9ygfUdKzpPRxNKq1ueyI0U0fmxtlW5BByD9KVRmPcVIx05rifBWu6TcQf2TYC7DRLvUXLg7h0OMHj6V2HmMuFzxj8qwlFxdmbRlzK5KSSDg8UvygjOcGocMXw5wF7Uw3BDspwcelSUSM0aNlTn6VF9sXAJTn61FJId3C4PbNQA4Yk4P8ASgRpLP8AISOM9BUe8u2M4xzUIfHCr1FNMgAB5Dd80ASEjOBnPU1GzKHB6ketJvOchufTFRBiMHA4OaAFck8k9+aa6hTkk/jQQSN3FMP3Tkj2oAkBjVt4G4U4ygYwMHPb0qAsUXAXj60wE5OcUAWmPmgg5P40FGwOOe5qKKRh0H1xTmmbrnAz3oAVigzk49qjbGDtGM0jZZuetO24XI6UAN2nO04qdVGVyc9qrjdhugJpAx2jdQBcwu85IAxTPMAXC1DvwuBzn0o+bbkjH1oAkL4YY9KfubkdzVc7lTd/KhZCMZIH1oAmRm3ZI71OzJtyBnPWq+7aOTkmnhuMHigBCScjgY6Ujg+2TTDt8w+tNdyFGaAHpIINRhYc5ODj0PFWLz5LgfKeR1rIkfkuvLKM/lzW3cyeZHHJgAsARTQmJHJ8mMY47mnrMypwe/UVT835jheO9QSTSsxRBk+1MRsxH7TE4HL98mohwWBByvasmG+gsZM3VzFAD1MjhT+tRaj478NW21UvmuCevkIW/XpRyvoPmS3NY3GQVKZbOKbLO6DaT8vpXD3nxEtA2NN0uabBB3zuEHvwM/zrMk8Z+I75gIBBbjnCxQ7mx9TmmoPqJzR6T5LshYcL13E8Vm3F/pdrEZJ9StEXOMCUMc/QZNcRDonirW22TveyRt1E0hVcfQ1t2Pwxn37p7iFPZFLEUWS3YczeyCTxnpSEiC2urhgeCF2Kfz5/Sq8/ja8kytnp0UQOMGQlz/QV1Vv4D0qBfnEkzf7RwP0rYg8OWVrEoghVT6qMH86OaPYLSZ5lLqmtTnE93NErnIWMeWPpxUUWmtMw+XzG9zuP9a9EuvCZnkV1vpFZfu7lVuffIqSPR76EhXktZMfdLRMMfk3NHOg5WclbeGrnOWgfb1wcJ/Pmte28OTbwC0Sd+7kfyFdJm7jJCxWI7giNuP1pxu9T3nElvH0wVhyfpyaOYOUo23hfeSXknZc9h5YxWrb+H7OFwVtYxj+JvmNU5ZNSnBEmqTKO3loq/wBKjFtK6kXF9dyk/wDTYjP5Ypcw+U3CIYSIxNGhzgICFJ/Cqs2paTbOVuL2LeDgrv3EH3ArMbSrJwC1qhP94jk/U1IIo422JGgGOMCi4+UiEzuArA8Hv2NT8IBubk1znh3xhaa/NNAtncW80S78S45GcV0eQ6AnA9KhxcXZlKSauhR83G4mnrH8u3jkUxlIX1z6U1Rz3FIZaRRsXHFV5yFuombOGynHc1KpOBxxUV3lrYtzhCH49qYjNmjaOdh2znFKEwvpT7s7phIPusOOaY0hOO49KYE1uCDnk0zUbSe7jVLedYWJ+Zym4ge3ofejfghlB/PrTplmms5I0lMMjqwDr1UkdaaEzyzxnpyaT4otZpmeeKVEZ2kxlyPlbPGM8DtVtNWt1AjstLD8cGRc/lvP/stN8WRLe6PJdrc3Ny1rceX5kq4GPunB+oFJpV5qV3p0HkT2dsmNpwx3tjjO2MbvzNda1gmcjVpMtP8A8JDdx5kAtoP+mh2qPwO1f0NYmu6b5WmmabUUmlVgVjTlfQ4woX+dbMukyJ+8vb6555LNstV/76Ylz+VVZP7EEM0MSQTSuCu+GKS5k5H99iFH5UReugSWmp0/hK9nv/Bai3IN3DE8K7ucMB8v8xXH2k2seGA8FxolvcvMRIrzxbtuRyAf51e+G988V3e6exI3ASKPccH+Yq34+0x7iexvEtZp1CtG6RZ4PUHOD70l7tRxezKesFLsVNGvNV1bxjZXn9nQweSpWQQAKNnckZ969L3FmAZsd68r8IpPp/iO0ZdNlgE2Yy7yHoe+OO4r1GVNq479yKzrLU0ou6LLSYUhT97uRUAKqegPvTYw+7DknIxUmwAcjgelYGg2Rk4JXJximMhJJDDbjoKdhenX3zSoOvYeooAFI2/NzxxUZKKQdmAeMU1iQ+F6DmmGVmyvYHtQA9yHb5FIFK2dwQAbcdaaGIYDnHelDL2HHfPWgBAmAc00iJGGM4Hr60SNzjPH1phQsh3cAdBQAjMDnjOKkOFTJPJqNcAkmkYZbjH0oAUbiwAz9KQkMQCOn600o4kHzEA0YIAye/FMB3nKflVfm9aVXBU5HHtTAFAPH0oGdhORj0oESFAy5H3fpTWAUBcdBzTVdthB5GaY84BxwO+c0WC5IpVSe+KeSTh9vy96pm6hU4zk0xtSIQoB8p60WC5eLBlKlgF6VD50YOOuO9Zcl4zH0H1quZScjdn8adgubP26MHgbsfjUT32ORzWdFb31w+LW1mkyONqk1fg8MaxOQZESAf8ATR+fyFGgXIpLtu55NVGu26qxP1NdEng5IRm7v9xPUIuB+ZqYaTocAA2tIR1IJOaLoLGFb3UaRGW5IWI8biP5VjP49uJbb7LBpjAocB5WxjHsP8a7i5FjcReTHYRKgHG5BWZp3hvSLe1DizUyMxD7mJAP5000S03scZP4r1ybBiSCEeqx5/mTVdh4m11/MRroLn7sGVTPrXqdrZWMcXlx2FuqnjOzmpyFhj8qPAGc4Ap8/ZC5H1Z5VB8N9ZvDvl8pc/MTLLlv0zVhfhpdkqpn+u0AZ/M16Y0uxBheDSec5PGB70vaSHyI5TS/h5DAo88qR3BOSa6m20LT7RkCwDKjALf5xU0c53Yc8Uss6lANwJ7VLbZSSROJVA5wAPSnCUJyh+tUCQHBzkGpA7K/QY96kou+aW6HHNPDkDJNZvnnJwRTxJ8oJPJ5xmgZdaUY3ZNQy3OSdmSO1QLdbc45PpVcuVBKnPrQBO8jOwIO36UjuURQSQfrVIyvyc1JuWRNxIDDrzTESmYsD0PrUJuM5GcY6Gqsj5JKnHrTfMAxx1oAtG6kLYwceuabvZmHzH86q+ax+lRvI/rj3phc4jR/FGu6PrMNn4gSXy7jABmQBlz0II6jNel/MU+Xk146yeJfGOrW7XVvIEjbAcxGOONc5PWvXY9wZcsSBxWldJNdzOi3Z9iT52Iw351PEScgnJHeoIx824ZwD0qwJF2Epye/GKwNiwmAADyDTyodXUAAMMe1V1l3dBTkeQggEAe1MRnNGfsjJkb4WKn6VGhCsD1H86sJmO+kiLk+au4DGeRxVfbsJBOSD6UwHDpkevSpQsjEZwKFC7CR19aPmAI3ZzQBymsaWN99bGa8uWulIWJEby4sgkEk8cEDpg1wOjXl8tvNZwTzpGDuZI5dg9DnAJNep6rpo1J4i1zNEsZyVjxhv/r+9eb3KzaJ42uI7dY1Mrny/NwFw3IOSCB9a6qMrpo5aqs0yaHR7q6fckYdu7JGZT/302cfkKs/2J2u7mMbf4Zp9xH0Vc/yq8bPUdQQ/aNTLD+5bQtKPzbCCqklppNm227nSVv7tzdbv/Icf+NVzE8pmadPFo3je3aCYPAXCMwXaMMMEY9jXoXi7T5dQ8M3McIZnQBwi9Tg5/lmvNfEUlo/2eSxi8sR5BKW3kqe4xkkk+5r1HS786nocMpbKzxDf+Iwf61NX7MyqfWJ5MIbuPiLT7lPLYPCXJ3RnvzgccdK9hs79Ly3R45kdwg8wI4ba2M4OK8gutHmiu5oY9LvpNjsofOQcHr92ux8Ex/YWmi+wXULSgFnY7kUjPB44PNOsk43FSbUrHcRSEYJ5b3NAkdGOWBzURyrgMR0zmp8R7Q3JPsK5TpFy2FfjLHpTXLLxnGewpskvOCCAKY0hY7QTjPpQA3OZM04lduYwB600Abj/Og5wBx/LNACozM2e/TNOdSDjjJ6VGzMvTj6U0kqwO4nI/KgQ7gOQQM9OKDIAOlNjYhsNxnnmo5ZkGT1NOwXJDtwTnjHSogHDZ7VBLfBk2qCCKqSXrngNhSMdaLCuarSqvIYZzUMl0pXggEdazDcRouN5J9hUBmeYBY43Y+w5NOwXNMThiOd3pUcl4xJyQB0wKSDQ9YuAGS2aL3f5f51p2/gm4YA3V6i5+8IwT/OjQDFkvm6K/HcCq4umeTGfyrtofCui2jBp5WkwOd74B/AVcR9HscG3gjBx1VB/Oi4rHD2+m6nd/6izkYMcBiMD8zWvbeDdSmwLieKEe3zGt2bXCpbyYlX0LHNUZNTupjlpyB6KcVNx2Hw+DNMtyGu7t5Dn1Cir6/2Fp64gtot2OuzcfzNYjTLyd5LY+tK/MQYIeRxmlcdjXl8QFEAgi2rjg9KoSareMxO7YD6VXhhkZhkYX3qytqoLEkk+9AysHlmYmWRmH1qeDapOVJ56U/7qHGD9ajjk2DJUnjjFIY4sCwODgd6LZwftC8Bshh/X+lK8hKrgY9aijO2/TGArgqT60AWo2TBGTnPNMaZVfPUelV55Ns3GcGoWl3MQCSKokt/aFI6Edxmo5JXB4PGKqsSv8Q+lOMhZRnj1p2AmWQHJY8mgOpcc9OM1Eqqw+Y4FO+QLkHvSGi15wbbx0pTKuMnrmqLygdMmhLjeOODSHcvZJbOBTGcKxySKqFn2n5j1z1oy2085oAtG4QHgZb0xVf7QSxNRswAAyc1GWAPTmgQ+SQ5yDjNM889MVGGw/NP24BNADTLubrTdxAHOf6Uzq3tS7tzt2ANMCQqwxgg0hyep4pUfPI5A4qOaQDnJpiNgzAqeORTSWaHOR16d6TAYYUD61Fu647VkalqOdNgXBDCiIgEg5NQKcAEinZyc7SPxpiLIfnPAFKzvvyx+XsBTQg8o564oVmwoLcZ4oQCTt5BinAwVcZ56g1FdjZdP8u3virssKSWzoBu3A1UZmls4pnC5A2t9aoRHGrSDaOKmVVDjcSeKhSUiPaoxn0peFAViOtMRU1GxS/tZIDK6biDuX2NcB490w6c+mXluzkIvleYzbm3Kcgkn8fyr0rhWJOMdsVzvjSxa/8ADNyFTLQYmH4df0JrSlK0kZ1Y3izhDPLfhDI13dFsHE0uFP0GR/KrttoWqy8wWSwL6hMH9doP5GtXwZremWnh7F5PBBLE7IS2AzDqPc9au3nj/R4ARB51yw/upgfma2lKV7RRilG12zFvvB96NIupp5gXjQyBA2c456AAfzrR+Ht59o0OW0J+a3kOMnseR+uazZvH2oXoaLT9MU7uOQZD+QxTvBOnapp+oTTXFo0VvMmDuIHIPHHX1okpcj5wjbmXKZ+pzaPqNzNe395dWt0WKSWkS78FeOp45xVjwYhXxA5tTfR2hjJ/eAYcjseMVseJtF05VF5/ZpknmfDsjMv4nHc1Y0zwhZWl1bahBNdwyJh/KdgRyOQeKHOPJYag+a50pc7xnt1q1G+U3jqKrqQW5AwOT7077QqscEbe4rmsbkrR7jkn8qaqbTz09qjaRSvDD1qpcahDCmWlUkfw5zRYLl64nThQAAOpHWoWnQpjnjpWRLrkR5iRmYnjiiOPWb5iYLJwP9oY/nTsK5pPKxHPAxUD3sCr88gAx61LH4R1adAbq5ihXqRuyfyq7H4Q022QNdXckx9FwtGgamC+pwgnG5ieABSKb26OLWzlfPfaTXXQWuj2S7oLKN2HcruP61ZfW9gCpb7PTNLmCxylt4S1u4JaTy4FP95v8M1p2/giKHL3V6SByQi4/U1ptqkzqCGKjrxxVSS4kkyHkzk4OTzRzMdizBpWhWqklEcnu7Fs1eGoafaKVhhVcDoiYrFQlSAFLY4qOZJ5D8iAe+aVwsX5tcJJ8pMZ6FqqSXs0yAvIcnjANQfY9rDzJM+wFXFtoQwLZYd+elAFSWcYGSSajUyONuwn6jpVtpEA2xxgZPXFQNKyyZDdetIANowUb3Az2AoW2jXqd2DQzluSx+lIoYkMD3oGWAsQ+6uCOvFOSR2TaqjA6E1GSzE5/CplmWMKRwDxikBIAFQbuCOlIzIuSAGJ96hDGRmLEle1SuuxOSMGgYzLPGRj8qVUyAuABTUnZBxnmjzWIxwMc0APEYI3MOBxiq9yqx+XMmMowJqVJC+Qx4qOcDy+RkHtTAS7VfMJxgZ4quQu7IyOKutMslohKEnbz9RxVMODGw2c561SJZBKq+1Rs3yFd1OnPHzcY61UwOMnimBZjbkZ5/GpjLxjAxVWErnB4FSMyk4pCHl9x4XFKoKkkYxUYk+Y4o83sMZ70DJycjGeaCwxzwaiVs8GkLZbJPAoGOdmZ8Dp3qLoT3FKxIJ2ioJJGzhQPU0gHE/Nwcn0pSz5yT0qvvKuTikM5HpTAtNIoXpzUTyDCtg46GoHuEdNo60xXwpGBg+tAiw05CfLx700ykqAeaqhyDg8GkaTA9xTA6bGSTk05JFQHPeoTGdhaRvlUc1NGLc4yCT6VlY1GtLkH5cntSh9wyxGfenviP7gA+tV5P72cg0WEXCQyDGRTguI+vIqlEzMNpbAFKLlFUgfOc4GKdgNWCdFiHUn0FVovmF1BzkHegI7Go4bjBxt4HpUhfbfwydFfKEj9KYipHuHQAY7mp5I3++y47iopkZZnGTgmgOVyAw9uadhDwd4AJ5+lJKglieJ0LRyIVP0NRq5PH50NdbEHINOwmzjLX4aWqSE3d9LIoP3YlC/qc1rweEtEsl+WwSR+zSkuf1rXN4iglnwfrVY6nEJclyQOmBWjnN7szUIroTRRJbptRFRR/CqgCh2UN0+btUSXDSncEbaeQTUgaAuPOkVM9CaixVxyznOSOKViSNxPemz3FjGuyMvKxxyooiku5/+PbTmx2eSiwXHAk8AHNRSRtGSzkICOrcD9auro+qXpzLcx26/3U/+tUo8MWcfzXEsk5HXJwKLoNTn23XTmOKUsO79vw9a0LHQbRnzcRSyk+pwK6GKCzgiPkxJGRgcDmkNymOoPFJyCwyKGys4tsNlFFjvjJo89g4/PmopJxs4AHfNVjMWyB09akZee6bG52yKrmZWJJFV+ud33R0xSvIuBsByOooAtI25CFGCOc1AcyseAWFMM7EHjA6mk8w7PvHGOwoGSGABlLEnjnFTZh3Yxk+pqqsmSAM+mTUiugYowP1oAdNINuARg0KjLyrZHpUYkC4U8k+tIZFR/lORigBygggtyR0zTWJkXfnp2FIrhiSw+Y9qVW2MVU49qAGY+Y7uh60jQgKcY69qdg7iepFPHK4z9aAI0RMZ3DI708Abc96iA29SAvpT2lATPYUAPDEArjjtUXz5PTjtQkpcE7RR85AbIw3GKAFV9ygHpUhySQxz6Uw56ED8KTcwPTr3oAlIwBnt0xTGcheRxTPNI5HamPIwJycUAPWYkHPQUGQMp5JFRIykc45oJAwAoI9qBjopS1uUA4RuPx/yarF2TPHOalSRjK6LgBl6fT/JqvLuWTnjJqkJkEskjZ3jrUS8nnjHpSzOWbn8Pao8gMMHrVEXJtwU5705iOGNV2Iz1NKchh3oHclBK5Apu9ueaj8wg4PSgEdc0WC48OysOeaezuuM4/CoCcd6TcO1ICd5z1HGBzUDyljkHGaYzt07VEWYZOaLASby3U0h4zUPmNu5NL5wHWiwyQEYzikzk4xUYmB4p2/jinYVwZW6jHFRM+6nGQq2c1GUDNlTTFc6cSLt+91oWYhz3qB1wuV5xSxgs2aySNbk7SnOMdacS+BuIA9apXxnWItECcHoOuKdAszwo8gIyOc9qqwrlk7CpJNJC0e04GBUTTRA+UkqGUjIRTlseuBWRqfiSx0W13TRSTzbyoiRlzx1zzxSsw5kdEG242jipiXli4zlSGGfUV55/wALLv55/LstJiih2nBlYs2fX0qjLq3ijVNp+3zJg9LZdn54q+R9SHNdD1K+fMxkVuCMsh7e9ZjTu7fu42cn0Ga5fwhp2oWuvrO4nk3DE5lJPy+5NeqLfWkcP7pApx0C0nZDWpzKWep3QHl27AHrnirUfh684Dui/jmtk6kHTMa7D05NQPeyyADzMA9xSuFiL/hG7QLuuJ2P0wKki07S7ZsR20cjerjP86qiTex+fJ9zzTXdmI25OOpFFwsak6xzgAMkaAcKoFRLpti8Z3hpWHYniq0auyZbgdqcsfyksxx25pXCxdggsrVdyxxoe2BTJJ03Exg4+lUdu48sfYUrFkIA4x0pDLqXOF+7g1WnlOCWY4HaowSrctkEdRQyDuSc0ARibcAvTJ5oCH5lBz3oKqFJA5NM3ANgdfWgCURGRCq5z2zUQg7BsY7VIz7T9/n2qJpCJM9waBA5CEqrduaYxVQrKDk9zUhkWTngdjimeYhJXFMBqFmUjpnv603HzZGTxUhbjHOCO1NUhTwBmgCRZBHGdyZJ6H0qNiGI2gjj1p/ynqwz7U0kbRjqOKAEZ+AwX5u1MB+Y7uaecMB2wetMZB0PJI4NAwaT5sKKEzk7u9KsajAByx70jqQoI7UgHbtpO0jrT3x0H4moBnAIIzmpQoABPWmIaGGQC3anbeM4yppjINvyjLU3fKo6AUATiNnPyjipFUbCC2MdKqlyFGHwaarvIRzye5NIC0rqp+ZgKYZwWB9KiKlWAJBJpgYBmXHOKAJSSdzYAFQyPkg9/Sl3ZGCD05NRGPPU5oGKpB+8ee1SkEd6jRADx1qVgQnc896BkTuY5EfkHODj8qimJZsnIxwaS7Lbew+lQztkbhn5gG61SJZDMQH65FRlgOOKa2D1zmoixwasgmL5bGcUhkOePzqHLEcfjTQx6HrQBMXY0itn60zJ9eaUOFHTmgCYHHU0x2VW60wyZ60x3U0DJNxYdaa7DkHqKgLMDTS3Y0AK55zTN3PWmbueTS5FAEqOB2o8wk9cVFuFN8zigCRm5pN5FQtLzTWfigRrz+KtFsVJe685ucLCN369KzX+IFuCrW+myse4ZguD+tZFn4YkkQDHf+Fc1tWvhCAAecxPt/8Aqo91D95lC68Z6ndWZSGBLeUniQHOB9CKzHtfEOt5Lz3cqnGQpKr/AEFd1baFp9qNywrv7s3NXxEkY+Xj6VPtEth8j6nEWXgm6LK00iRtwDl9x/StmLwTYoMz3Esh7hVC/wCNdCOoIHI71KCWNS5tlKCRmWnh/S7T7tij9wXJatNYxCMKoQY4CAClORxQWO4Gpu2VZIg09/8AT5k5O4ZrRcEMR+RFZcwFvNFKnB3YJ9jWvIowG5IxmmIiaVkGzbnIqISkEZ57VNKwfG3sO9QBQTgDn60wHkKzbk4OetWBJhcY571VTcDyD9KlRsHJHtSAnR8gA/hRNlMkn8KjYqmCDz1pWfKjA3Hv7UxEDTEEH04GKd5/IPJJ9ahIGR2FOxjGentQBMbglBng5qRZk2HoSBgc9KqsmR0P51GflGRnHpQBYSUF8Mcg8UnmDeWyAarqckgU4Rn72M4oEOkY5B3Y56UO44xy3cUrfOM7cf0qAMQ5JpgTeYMbVGD3owSMg/pUSyruGFJNTNJ8vAA560AIWCjGSTSbx5eNoyKYId7j396mZEhI+bkcEd6AIxk8twD6U1iS4ABGOaa8hL7VHHShXYHnBFICU7ivXjNI0m3AJzikBMkROACe2aYGVevJzigCVXydwpJZMLgHrzQCCpI6elJs34JHSgBm9iD61MPlHXHHQ00Ls4I4pWTDDHpTAN20Z5IpNw9AaUKd2M5FMc7ScCkwAx71Jzg+lINoU8nI6UwlsYIOaWMjHuetAEqyEhRgk+tDMepHbrUYlCkKAabI7MSBwO1AD2wOQx4qFQcgZ+tORixGTxT9gz1oGLlV789KUyk/LjPNNOwZHP1phJD4A4PegCtckkHH61EGVrdcnnJX+tPmDFWDHHqKpRuQsinggg9KaExsh9xioC2fu9amfAJH61EXCH3rQgcOQQOp61GA27igMScnvS+ZtOepoAUoxHfNJjnBzS72PNKJFPBHNAEZO31phb86Vjg8jNRMcnigAeRieKQnK5zR9KQ4A5NADTyOaA3vTGIx1poY0APPPSomJzT920UwsKBXAnJyaAwpvfnpSZA6UAd6HUphAB9KrurIc81LGgjJOc5oGWyGAxXMdI2JDL0OB3pzKPuYz6GnriPpSZ5zmgQzaQMinAPgkmg5NOA464oARX3cE04lNynnFMyq8Y5oDJswaYht4FlgcDsM596mt5TLYQnJ6Y5quCWVgB9KNMJWOWJuNjdM+tUhFxc4xml27eg5P6UgJJwD+NBchhnJ+lMAEhGO+KSQ7sYbBHPFIRjPGBQYxnOeooEM3knB7e9PRjtKhhz1xUcsR4KnB6UqYVqYDs4HPXNNYs/OeOppGct90AAUhDMw5xmgBxm46ZzTDIcY64PanSHawHHHpTM4JIHUcUCDzFXsM9KkikZmAH3faoTuJ5AFOBK/SgCSSTIY5wc4xUGwkk5BFSqwPGOSO9Iy980CExtUD8c1IRxkEY9KYSAMk9aRhtUEE80AKHKkYoKs2XPUGgEFsj8aDL2z1NAxisBgsvNOBG456dsU0uC2BimksvB4FAEkRx6EHtSE5PvUAk2yc9PWpTICxHegCXeq8Lx9acuTt569qhz5ij5cVOBhQPT0oAc4QqRSjOcA8YqJ5AoAXqTTlYdW70AOkCKvykhieeaYeevTsaCy78KMgdzTVy3HYUAJjJ6g4NOG0MRgYppQoxOQBmmEjkDJNIBXfLEY+lNKszY6Ui58wgHGBT2cbsigBAAvAPI70gY5brg03JcnI/Cmu+GAXJFMB5PGSPwpEkYHiow+4c9qfnavy4+tAFW6LF/Wqq4WUgZOf8/4VclI+83PaqMrhXypzimhMQnKA49jUDAk5x0qbnLg9jn8KjdwFIHerIGHceaTZ7inKcgCmt19aADO3vQDhgaaSAQOtHp70ASHBGeKiKnJpSaYXOcE8UAMc4PHemdeopxwWxSsQBzQBCQAeelMZh6U6R1J4qJmzQAFqaTmgjNNBFADu1M34NKfeo254FMD0MFAcnkUx5AHU549qrqxx64qTjZnGK5joHGUE8dqQPgcdKj2bWJx1qRVyM0WAepLLz3pT8uFz9aU4CjnJqNiAwzn8qLCFZgpwAfrTTw+aRyS3GKaSVHTNMCXO0nB4pltIU1EAr8syEfiOabuYYJGQe9NnkEaxy45jcNn2qhFzdtcqWxzSqSx4OTnrUd0FDgjowyDQnAyDTETndwCRTGDeuD701ssMhjkU0OcjcelAEg3Hr1oO0Nk9O9IGKtyOlITuOegzQIcSpI2/jSbyrf0pFGAD2zRvG719zQAu0ckdKUnBFQsxzx0pGcEYxyPWmBI5ycDjikbPftTMliSx7dqYH3OUHr1oAm8wKw6c9aejqcnZkfXpUDIOm7mkD8cHoMGgBxOSc0v3gADwKj5OTmkBKk56elAiVpAgJwDjiolcsDwB9ajkkJ2qoyTzQGYcNjPtVWJvqTmI4zke4pEUuDkce9R+a3qTShioHzHmpaKHCMgleCacItpHHX1qUDYOx96a0mDhhkmkA/cMEYA+lM8w465pu5F4yTTT8oz2J4FAEzsAoO3mk5YcUh/eIBj8aXcF4GM0ANxjHXPtTldouevam7iy5yOKcFBTnsaABizLnjFQM3PGTVhnVU2ZBJ7VB0ViBxmgBBIV680oYyHJHFRKvzdakyRwBnPUUAPYnBGcE9OKYB8uQPrQHzk80hYiMtjHtQMU9DjHFMXLHbn61Er7DuJGPSpfORDnGfpQA2dUSMc4zWbONp3dqtzzggjbVGaTcp7YqkiWKSd6+jLjj2phjJFPbb5EDq+T/Filc8dcVRJFtOMZxUfQnmpWT5vQ1Gy44oAaq+tPIIHA4pqnsaeTgYoAYQwXPGKhJ55qbDvknpUbLg0AMY4ODTWJNNP3+aTvweKAGMKbxTiMmmhcnmmA000+1PK80HANAiJmPTFNOalYrzwajJyOBQB2oZhyBwe1KzkjApsRJODTnHPArnOgVXYnFOcnOMgVHj5aAAevNAC7ipz1qQSd6Cq7fb2pmB2oAkZ89KYC2OtN6L70gdsY9+tMCVeFIamTKGhK45NBYDGc5oEyknPWmhMW2cy2CMR8yHY3PXFODgHFQWzET3EPb74qTIZhntVCJt5AA6570wnJH1pQ284HGKVkHH60AKDkYJqZXXYAR0qDKqeoyRVS71TT7L/AI+r63jPXaXGfyppNktpGg75AwtNLAdOtcteeOdIhYCFpZ8f3FwP1xWPJ8QpDKBFZqsZYbmd8nGeelWqU30IdSK6noG4FuO1IEDlv5VBEy4UqdwPP1qUybVJ6VBoI/yA88mmrxjFNW5tp2ZY7iGRlPISQGpOnGBxRYVxWLbcgUKoVenPepIzkYpucZCnmgYEDIXBGaiZNrZz+FPAJbceMU4ug4AyfWgRXZCxRxxihcliTg1KwPIHcdaSMBevPpTJsCxjvSuwGABxS8RgnmoPM7YBpDRZ88bQMZ4piEM5ZiTUAbccDqO9SxMq8DO40rDFUkuWVT7GpABgFgAKAcHHGMZ5qJ23Egc44oAc8oVCq8mq/nEtx+VOER2NuygbgHvmqbWs0Pzw3W89Ckq9foR+NOwi7D1OT0qZ3AQAGqdsrSRliCpBwQR0NTjiPAwTSaC5IhDct1pSSSRjgUwZz2pw+/kd+tIYuDv3HgVCbjZuyuTTmJHBOQKrzn5+RjPemgB7x9uAAufaosvIDlzQDlsU3JG7jANMA5C/1pd3AGelJg5HJo24oAZI4UH5Sfoag2I5wx2Z4yamkHBpjBdjF+mOMetMlhHCBayBv+WfzAjnNJ8kiZ3Y4yKdauJMwFgMoQoqNIsIqknAzVEjC5yOOlLuVqGjKErwc8+4qMO0bgjqPUUDAxktwp/KlEUoBODj3qR7qVzy2B6Cp0miK4Cc+poEU/mFRuc1oSTRuvzLk9jVJlHOBQMruuOlREn3qy8ecYFMMRxzikBBn2oGD1qTys9/yppjVfU/WmBETzSAjNSHb2UUm5VIIGaBDdhPRCaUWsh5wFHuae8xbkAD6VC7uwxuNMDrkbKj3pS5B+U4qJfu8NzUihcYc/jXObk6gEZ60uAR0pFwBgHinHAx6UAMc5XANQ89c4qcKJM449qZtVsZGMUDEX5uOBTGOw5z0PanEBVJ71E2CD2FMRLw3OfwpV2buRx3qugwetSYJPFMQy4Pk3sLqMK3DVMSPMyDUdxC0kLZPQZFETBo0ckZx2poRaVRnOetPkUY4fr+lRwuCxB/CldNzBs8CmB5vNo/inULiVJWnMauRukl2qRnqBUd54NvLLTLi8nnjLRLu2ICc88816V5g+7gYx+tRzok0bRSAMjqQwPcGtlWkYulE4PwtoOl6pp/nzxtLOjlXQuQPbge1SeL9MsbHRofIgihk83ACjBYYOf6VBceFtZ0y8d9InZon6FJNjY9DVZ/DmoTziXW7+O3TPLSzBnx7c1ro5c3NoZfZ5bHaeHJ2utBsZHPJjCnPtx/Srmo3dnZ22by4WKJ8p8x65FVNHvtLlQWWnXCyC3UDCg8D696uX9jbajHHDeRJKiNuAPrXO172p0J+7oeY2T6TFFPFcw3Ms4kPkyW7YJXt/nFaVlL4mSb/iXJfCHqFucEfqBXZ2OiWGnX0t3bxbHkAUrn5QOOg/CrszqCXYhcdya0lVT2Rmqb6sfBPM0cTSKFk2jeB2PepWQlgS2CaqW91b3IYQzxyFThtjA4qyOByc4rGxtceqjJyT/jSsQMBQfrTdx+UZAzUjYEY7mkK4indnI5PNNkHJOcCnIG5xUb5I2Z57mmAuMKeOTzUewZBPFTF1XgVDJIeeOBQA3aS2UJB6Gn7XVfx496QMOMDqOKU7mGDxzSAY2c4J571PbquBk896jkADAdexpV+U/KfrQA9izgA9xUMiKHHH0p4kKyMGOTu4Hsaa5DHGfpQA9ECyMwJwyAEeppvllWPIxQpYADqKJHIHA60AKGYAlRxnrQz7OvXFRqJXbaMZPardvp8jTYm4UdTntSsBBGpd/n6Hv6VHcwpgMC2T+VackKBNgBxnGAelVrmJYomZm46ACmBmbMDgCnoM4BNMJK89aaXbORxSGWfLUH7wz71C4UN1pm4k8mn/Lt6ZouBXk6461BIxC47VNKfaoCpaJv7ynP4U0JiWOBfxjgbjtHPr0q40bx3Th1IX7wPrmskfJKGJ+6c1svKZEQsSQBgc1aIZVlQ7yeT71WZHZicYHvVx3AIGM5qN23dqAIVXaQW5HtTwyjlVI+ppGBDDPSoyeTQMnMiqRtwPoKY0m6o+tG7BpANY4PFRMxboacWJY0gHrTAZvNMLZPJqRtvaq7DnrQApOaaOOtHGetBHHFABnNMYHFO5FNY0COsQLsHY+tK4CbTnINQRyEoM9anB3gZ6CsTYcrtjAFSFt2O3tTM8DHFJ0PWgLjyWDZBqNnycHOaeScDimEBe+TQFxDjHJpnOKeACMd6b5RbIzyKAuAwKcDg5zUe18HI6UgfkDNMRaDgrg81StyQZIz/CxxipgMH71JAFF+UIxuXj61SEyaNiuKsiTAxzk1B5ZWTjkVMoZhuXqKdguY2var/Y9ibgQNL8wXAbGM965GXxtqtw+yztY0PYBTI1ehTWCX8RglhWYNyVIyOOataZ4cdzsijht4cZztxn8BWsEu12Zzv3seR6lfeIhCs19LdQxyHC5+QH8BVyw8H3OoQx3U16gSVQ4IBdiD9a7zxp4eil0sK0rMsbByyrgjsePof0qTwpbWkfh2NJY5d0DFQzgjcOo/nXRaXJdaGHu81nqef6EraN4zexLkq26Lce/GVP8AKvRBwueC46ZrmfE/hy6uPFMOo6eYggCSMWbHzA+n0ro9+D04Nc9XVo2pppNHG2tx4l16a4VL2G2ihkMbmNQOR2Hf9apa9ozWEC3N7qb3T7gGidiCw9uTT/ENjY6XqDNDfXcMtwS5ggGep69R71DY2NnNbG7s7a51G7ikAkt522lRzzgda1Wmq2M32Z1uiabaWEYa0jZEmVWO45PTj+dbJ9qyNH1KPVbMTrGYnVijxn+Fh2rVwccEYFc8r31No2toPJbYD1xTvm8sHP4UgYtEARik3nIXpUlCmZwMY+tOJwPfFMzyP60m7g9xQIkBULyeaZyxII4xwaM5xil3cY7UAR8KFJP40/cAud3HUVHIC2AfWmqp38ngUDJ1PX9KRFy+cUHkj9eaUOFxuOaQCMP34LZwRx+B/wDr1Iyj25qFpUbY2OjDNKQSc+9AEiAhvbv7U4YY4OMVAyk554Pamq7KcE0AXLe3MsiqGxk9a1riM29scMpcnPPT6ViROyqzliNowPqa0ZGM6xs7DhATjvTQiCa5P3kjwCOp6ZqrK7zL82AAOAKSWdmYAZ2g8UbjnkcVLKRUODkdcUx1AIFPl+WTAyO9R7wG5oGKBk8AYozg4zxSb8ZppJIJoAZNgHPeqxZtxNTO/XcartICDzTRLIZYhuyD8rcitO2dX0lssN6uoHHUYI/wrMaUEMvUGprRn+yyR/w7gQfT/OKtEMmbr2qPdnk0jN3phyetAEjOMjNRsQWOOlJ3oxg8cigYE4ppJqQjIzTDwKAGd/emk5pzNgYIpmRmgBrrTCox71I554OaYfpQBEQAaQk44p+2mlT2oAbknrTTipMYXk1EcetMR0kJ+TnqKmWSqlhOsiZPXuKtsFJyOKxNSXAdOuDSBcAc0gA45NPBHTvSGJuOTmmk84FKxweRTRzzQIXJAyKeGAXGeTTcbhgmjgDnkUwGu2D1zTNgJB70/IOSRSEgDigBwB7GmOpMkbKfmVuvtSgsDVqz2m4AZcqylSB1qkJj5G2MOc5yD9auW8sf3AgLP+Yqs4iK7uSOorV0LDBpYreR3RuqrkYraEbuxEnZDo7W4kISG3Kj+8eM+2TWlbW7wIFurhIVXnaT29qvRW9xcjc37v8A3jgj6U280qOe3Md1O2T/AKv5T1+tdip22Odzucn4xvrKztYvsVyy3YchWYApIo5OCeh9q0dK1GC+0m2lSMMSmWG3PI6/rUureF9OuLNIZLIzLkHLsQA3rntVjS7ODRdPS18xGJLECAbhjr0reNO8PMycrS8jL1jTPMt/7QDFTwvl7cc1glCDzXZ3U2nvaXkf2mRpDEzCN+ikY6DrmuIttRtb2HzraVJkPdT09jXDiKThK9tzpo1FJWTOY8UK+n6hZapaoXuiTCFK5DD39DzWTcTaquqG+kuLLTJ2TY/7zJYe685NX5r6+nvtciN+sMkabIImYKMZzkE98fzqjpb+Fbezjkv9813jMgcMfm9ABxSirImWrOh8KR2kNnKkF+l3M8hkmK8cn2roCwUetcLpF3ZzeLYZ9NsJoLVozGSq8E46nsB0rtz83GOayqKzNYO6Hq5P0FTnDD0qBYmXHvUgHyEE1mUNdsrtUE+uKYpAzml37GJAyaVsOBgYNAAsmFwePSmhgWyT9KU/dCcc96QqFXJOO1ACkryW/ChQCc9qbwSpIyKC+JPlGFoGDn953xTGZgfanPlufXmmY3HmgQn8JwOoqxESYwe5qE5VhjpUkJbJBOMHoaAA5DA9+9NYtnOOlOcnOR1pyYPLUhjlYiMZ6A5qwd2GEbDAHU+lQAh8EHgUsjFI+eV6imBExIYAUMzFfaiMK/O75jUwA8sDZz/ezSsMpS9smoiBxjoasTJkMcjj1qFVZlwoPvRYLjCaTc23iphaykDgAnnrUotRsOX5A4oAzWUnOaruOCK02iA64qFwuOBTRJmxw72O47R1yavfaRHBHboP3YbJzUbcGopKq4rE5QZK9aayFOtOQ7lye4odh0PPpQAzim7gOlGMmkKkAkUAJuajkjtSAnpTTnPWgAZC3VqZsH9407OBg9KYep5oAQkDt0ppkz2pe1NxxmgBu9h24pCeKczcUw4oAibdnrSZJNShRmlwKBEtnMVIIPIrfR1kRSBwRXK2j7hmuh0+XKbD+dZtGpeUcdcUYJOaQ9OlAk2jgUhkmd3DYpWC4qLr8xox/HnNAhwUA5pMY47U0FieOhpWPOB1oAbIu5ht4FIv3h6U7JBpJZQi/WmMUthsDpT42O4leCO4rMN02/qAKmgvCr/NgiqJZtQgSFo8Z2vt256gjj+ldF4QuJ0EtjGrZdg+7+7jrx71gWUpeUFcruj3KR1yDituwna08QxzMQnIYgDAZT1A9a6aWjuYz1TOxntyrtJKcc8ZPA/CopNqwbyN7j7qH+I9q0japOd7s24jtUVxFBFaOFiWRkwcNzyORmu2Mkcr2OZivr7Uo2jFqCyMUfnCo3ce9O/sa9nDhpfLHHEQwfwJ/wAK07PWxcThP7OuI2L4ZsDauRnJNTG7uEfybg28Uof5ctnevtx1roc5rRKxzJQ3epkReG4YGEn2dVP3uvzZ9T2rxR7T+w/iZf6bbyiS3mLPkdORvHT0ORXvJsria5Ja/uViIwAhAA964vxJ4WisLldXYia6P7iSQfwr1XPvjjPsKwxDvTd3dm1B++rKxx9/oGn6pMst3DukAxvVipI98VhaNDFJd3t1Dptomn2m9cON0hZRnOTXYtgEY4rn7vwtDeXUssN9cW0dwczRxn5WNedGXRs7pR6o55LvUBpB119WMUnm4iteiuAQCAP/AK1d9bztLbRS7ceYgYj0yKpJoGnLZ21s0AkS2yY9/PPcmr44HA6UpyUghFoeC4PB5pU8z7pH40QktJgnmpSgXPJNZlkRjYueKChx6Yp5cqeemKA4ZCd34UAQMmG5z7UuABzyKccBck1HvVuBQMehyDTWG5jjpS528A9aUfdJ5oATBC4pFiDLk9acTx83FNZ+RjNICRtnygc4FPRcsT3YDNVgDuzyTViIFcOWGCcbcUANcfNgd6QRlhg/LmrTAZ5xxQNrc/likMi2xeWFj5KkhmxjJqMrkVakxGo4zzk1AT8p9aYiIcNwOlTDPlgtUQ4ySOaccHA6ikAw7SSRzTUfHA4HenAgmkZwvb9KBilmYcHFR8heW7U5Q33h0FIFVmJ9KAK7v061Ezg8YqeYKoHaqzjoB1piInI3HHaonPB5pzZUnPeo2+vNMRLE26NfY4pxUfxDFRwEFmXHvT5OKaExu4L2pGJPSkyT2pVDdDQA3pQcFaVgd3NNP3aAGcEUxjg8U/GKQgGgBiNkmnbCeBSFccinKx65oAieLb1qPaAaldt3U5qM0ABGe1IfalJo+tAH/9k=;" vertex="1" parent="1">
          <mxGeometry x="76.00999999999999" y="1165" width="146.66" height="110" as="geometry" />
        </mxCell>
        <mxCell id="USX80gVfWroeQub0HQB3-152" style="edgeStyle=orthogonalEdgeStyle;rounded=0;orthogonalLoop=1;jettySize=auto;html=1;entryX=0;entryY=0.5;entryDx=0;entryDy=0;" edge="1" parent="1" source="USX80gVfWroeQub0HQB3-65" target="USX80gVfWroeQub0HQB3-80">
          <mxGeometry relative="1" as="geometry" />
        </mxCell>
      </root>
    </mxGraphModel>
  </diagram>
</mxfile>
